<svg xmlns="http://www.w3.org/2000/svg" width="27" height="28" fill="none" viewBox="0 0 27 28"><path stroke="#606060" stroke-linecap="round" stroke-linejoin="round" stroke-miterlimit="10" stroke-width="1.5" d="M1.58008 1.44556H3.75508C5.10508 1.44556 6.16758 2.60806 6.05508 3.94556L5.01758 16.3956C4.97707 16.8779 5.03719 17.3634 5.19412 17.8212C5.35106 18.2791 5.60139 18.6994 5.92925 19.0555C6.25712 19.4115 6.65537 19.6956 7.09877 19.8897C7.54217 20.0838 8.02105 20.1837 8.50508 20.1831H21.8176C23.6176 20.1831 25.1926 18.7081 25.3301 16.9206L26.0051 7.54556C26.1551 5.47056 24.5801 3.78306 22.4926 3.78306H6.35508M10.3301 8.94556H25.3301M19.3926 26.4456C19.807 26.4456 20.2044 26.2809 20.4974 25.9879C20.7905 25.6949 20.9551 25.2975 20.9551 24.8831C20.9551 24.4687 20.7905 24.0712 20.4974 23.7782C20.2044 23.4852 19.807 23.3206 19.3926 23.3206C18.9782 23.3206 18.5807 23.4852 18.2877 23.7782C17.9947 24.0712 17.8301 24.4687 17.8301 24.8831C17.8301 25.2975 17.9947 25.6949 18.2877 25.9879C18.5807 26.2809 18.9782 26.4456 19.3926 26.4456ZM9.39258 26.4456C9.80698 26.4456 10.2044 26.2809 10.4974 25.9879C10.7905 25.6949 10.9551 25.2975 10.9551 24.8831C10.9551 24.4687 10.7905 24.0712 10.4974 23.7782C10.2044 23.4852 9.80698 23.3206 9.39258 23.3206C8.97818 23.3206 8.58075 23.4852 8.28772 23.7782C7.9947 24.0712 7.83008 24.4687 7.83008 24.8831C7.83008 25.2975 7.9947 25.6949 8.28772 25.9879C8.58075 26.2809 8.97818 26.4456 9.39258 26.4456Z"/></svg>