<svg width="1025" height="164" viewBox="0 0 1025 164" fill="none" xmlns="http://www.w3.org/2000/svg">
  <g opacity="0.3">
    <path d="M40.3755 90.4441V102.822" stroke="white" stroke-width="1.18476" />
    <path d="M49.8535 90.4441V102.822" stroke="white" stroke-width="1.18476" />
    <path d="M59.3315 90.4441V102.822" stroke="white" stroke-width="1.18476" />
    <path d="M68.8098 90.4441V102.822" stroke="white" stroke-width="1.18476" />
    <path d="M78.2878 78.4832V102.822" stroke="white" stroke-width="2.36953" />
    <path d="M87.7656 90.4441V102.822" stroke="white" stroke-width="1.18476" />
    <path d="M97.2439 90.4441V102.822" stroke="white" stroke-width="1.18476" />
    <path d="M106.722 90.4441V102.822" stroke="white" stroke-width="1.18476" />
    <path d="M116.2 90.4441V102.822" stroke="white" stroke-width="1.18476" />
    <path d="M125.678 78.4832V102.822" stroke="white" stroke-width="2.36953" />
    <path d="M135.156 90.4441V102.822" stroke="white" stroke-width="1.18476" />
    <path d="M144.635 90.4441V102.822" stroke="white" stroke-width="1.18476" />
    <path d="M154.113 90.4441V102.822" stroke="white" stroke-width="1.18476" />
    <path d="M163.591 90.4441V102.822" stroke="white" stroke-width="1.18476" />
    <path d="M173.069 78.4832V102.822" stroke="white" stroke-width="2.36953" />
    <path d="M182.547 90.4441V102.822" stroke="white" stroke-width="1.18476" />
    <path d="M192.025 90.4441V102.822" stroke="white" stroke-width="1.18476" />
    <path d="M201.503 90.4441V102.822" stroke="white" stroke-width="1.18476" />
    <path d="M210.981 90.4441V102.822" stroke="white" stroke-width="1.18476" />
    <path d="M220.459 78.4832V102.822" stroke="white" stroke-width="2.36953" />
    <path d="M229.938 90.4441V102.822" stroke="white" stroke-width="1.18476" />
    <path d="M239.416 90.4441V102.822" stroke="white" stroke-width="1.18476" />
    <path d="M248.894 90.4441V102.822" stroke="white" stroke-width="1.18476" />
    <path d="M258.372 90.4441V102.822" stroke="white" stroke-width="1.18476" />
    <path d="M267.85 78.4832V102.822" stroke="white" stroke-width="2.36953" />
    <path d="M277.329 90.4441V102.822" stroke="white" stroke-width="1.18476" />
    <path d="M286.807 90.4441V102.822" stroke="white" stroke-width="1.18476" />
    <path d="M296.285 90.4441V102.822" stroke="white" stroke-width="1.18476" />
    <path d="M305.763 90.4441V102.822" stroke="white" stroke-width="1.18476" />
    <path d="M315.241 78.4832V102.822" stroke="white" stroke-width="2.36953" />
    <path d="M324.719 90.4441V102.822" stroke="white" stroke-width="1.18476" />
    <path d="M334.197 90.4441V102.822" stroke="white" stroke-width="1.18476" />
    <path d="M343.676 90.4441V102.822" stroke="white" stroke-width="1.18476" />
    <path d="M353.154 90.4441V102.822" stroke="white" stroke-width="1.18476" />
    <path d="M362.632 78.4832V102.822" stroke="white" stroke-width="2.36953" />
    <path d="M372.11 90.4441V102.822" stroke="white" stroke-width="1.18476" />
    <path d="M381.588 90.4441V102.822" stroke="white" stroke-width="1.18476" />
    <path d="M391.066 90.4441V102.822" stroke="white" stroke-width="1.18476" />
    <path d="M400.544 90.4441V102.822" stroke="white" stroke-width="1.18476" />
    <path d="M410.022 78.4832V102.822" stroke="white" stroke-width="2.36953" />
    <path d="M419.5 90.4441V102.822" stroke="white" stroke-width="1.18476" />
    <path d="M428.979 90.4441V102.822" stroke="white" stroke-width="1.18476" />
    <path d="M438.457 90.4441V102.822" stroke="white" stroke-width="1.18476" />
    <path d="M447.935 90.4441V102.822" stroke="white" stroke-width="1.18476" />
    <path d="M457.413 78.4832V102.822" stroke="white" stroke-width="2.36953" />
    <path d="M466.891 90.4441V102.822" stroke="white" stroke-width="1.18476" />
    <path d="M476.369 90.4441V102.822" stroke="white" stroke-width="1.18476" />
    <path d="M485.847 90.4441V102.822" stroke="white" stroke-width="1.18476" />
    <path d="M495.325 90.4441V102.822" stroke="white" stroke-width="1.18476" />
    <path d="M504.803 78.4832V102.822" stroke="white" stroke-width="2.36953" />
    <path d="M514.281 90.4441V102.822" stroke="white" stroke-width="1.18476" />
    <path d="M523.76 90.4441V102.822" stroke="white" stroke-width="1.18476" />
    <path d="M533.238 90.4441V102.822" stroke="white" stroke-width="1.18476" />
    <path d="M542.716 90.4441V102.822" stroke="white" stroke-width="1.18476" />
    <path d="M552.194 78.4832V102.822" stroke="white" stroke-width="2.36953" />
    <path d="M561.672 90.4441V102.822" stroke="white" stroke-width="1.18476" />
    <path d="M571.15 90.4441V102.822" stroke="white" stroke-width="1.18476" />
    <path d="M580.628 90.4441V102.822" stroke="white" stroke-width="1.18476" />
    <path d="M590.106 90.4441V102.822" stroke="white" stroke-width="1.18476" />
    <path d="M599.584 78.4832V102.822" stroke="white" stroke-width="2.36953" />
    <path d="M609.062 90.4441V102.822" stroke="white" stroke-width="1.18476" />
    <path d="M618.541 90.4441V102.822" stroke="white" stroke-width="1.18476" />
    <path d="M628.019 90.4441V102.822" stroke="white" stroke-width="1.18476" />
    <path d="M637.497 90.4441V102.822" stroke="white" stroke-width="1.18476" />
    <path d="M646.975 78.4832V102.822" stroke="white" stroke-width="2.36953" />
    <path d="M656.453 90.4441V102.822" stroke="white" stroke-width="1.18476" />
    <path d="M665.931 90.4441V102.822" stroke="white" stroke-width="1.18476" />
    <path d="M675.409 90.4441V102.822" stroke="white" stroke-width="1.18476" />
    <path d="M684.887 90.4441V102.822" stroke="white" stroke-width="1.18476" />
    <path d="M694.366 78.4832V102.822" stroke="white" stroke-width="2.36953" />
    <path d="M703.844 90.4441V102.822" stroke="white" stroke-width="1.18476" />
    <path d="M713.322 90.4441V102.822" stroke="white" stroke-width="1.18476" />
    <path d="M722.8 90.4441V102.822" stroke="white" stroke-width="1.18476" />
    <path d="M732.278 90.4441V102.822" stroke="white" stroke-width="1.18476" />
    <path d="M741.756 78.4832V102.822" stroke="white" stroke-width="2.36953" />
    <path d="M751.235 90.4441V102.822" stroke="white" stroke-width="1.18476" />
    <path d="M760.713 90.4441V102.822" stroke="white" stroke-width="1.18476" />
    <path d="M770.191 90.4441V102.822" stroke="white" stroke-width="1.18476" />
    <path d="M779.669 90.4441V102.822" stroke="white" stroke-width="1.18476" />
    <path d="M789.147 78.4832V102.822" stroke="white" stroke-width="2.36953" />
    <path d="M798.625 90.4441V102.822" stroke="white" stroke-width="1.18476" />
    <path d="M808.103 90.4441V102.822" stroke="white" stroke-width="1.18476" />
    <path d="M817.581 90.4441V102.822" stroke="white" stroke-width="1.18476" />
    <path d="M827.06 90.4441V102.822" stroke="white" stroke-width="1.18476" />
    <path d="M836.538 78.4832V102.822" stroke="white" stroke-width="2.36953" />
    <path d="M846.016 90.4441V102.822" stroke="white" stroke-width="1.18476" />
    <path d="M855.494 90.4441V102.822" stroke="white" stroke-width="1.18476" />
    <path d="M864.972 90.4441V102.822" stroke="white" stroke-width="1.18476" />
    <path d="M874.45 90.4441V102.822" stroke="white" stroke-width="1.18476" />
    <path d="M883.928 78.4832V102.822" stroke="white" stroke-width="2.36953" />
    <path d="M893.406 90.4441V102.822" stroke="white" stroke-width="1.18476" />
    <path d="M902.885 90.4441V102.822" stroke="white" stroke-width="1.18476" />
    <path d="M912.363 90.4441V102.822" stroke="white" stroke-width="1.18476" />
    <path d="M921.841 90.4441V102.822" stroke="white" stroke-width="1.18476" />
    <path d="M931.319 78.4832V102.822" stroke="white" stroke-width="2.36953" />
    <path d="M940.797 90.4441V102.822" stroke="white" stroke-width="1.18476" />
    <path d="M950.275 90.4441V102.822" stroke="white" stroke-width="1.18476" />
    <path d="M959.753 90.4441V102.822" stroke="white" stroke-width="1.18476" />
    <path d="M969.231 90.4441V102.822" stroke="white" stroke-width="1.18476" />
    <path d="M978.709 78.4832V102.822" stroke="white" stroke-width="2.36953" />
    <path d="M67.3167 59.6228H71.762V60.8502H67.3167V59.6228ZM77.5632 65.0633C76.9329 65.0633 76.3855 64.9748 75.9211 64.7979C75.4677 64.6209 75.0696 64.3721 74.7268 64.0515C74.1187 63.4986 73.6985 62.824 73.4662 62.0279C73.234 61.2207 73.1179 60.231 73.1179 59.0589C73.1179 58.1742 73.2119 57.3725 73.3999 56.6538C73.5879 55.935 73.8643 55.3213 74.2292 54.8127C74.6052 54.2929 75.0641 53.8949 75.6059 53.6184C76.1588 53.3309 76.7946 53.1872 77.5134 53.1872C78.0774 53.1872 78.575 53.2756 79.0062 53.4526C79.4375 53.6295 79.7968 53.8617 80.0843 54.1492C80.3829 54.4367 80.6151 54.774 80.781 55.161C80.9469 55.537 81.0519 55.9295 81.0961 56.3386H79.7194C79.6973 56.0733 79.631 55.8189 79.5204 55.5757C79.4098 55.3324 79.2605 55.1223 79.0726 54.9454C78.8956 54.7684 78.68 54.6302 78.4257 54.5307C78.1713 54.4201 77.8783 54.3648 77.5466 54.3648C76.9937 54.3648 76.5237 54.4754 76.1367 54.6966C75.7497 54.9067 75.4345 55.2107 75.1913 55.6088C74.9591 56.0069 74.7821 56.4879 74.6605 57.0519C74.5499 57.6158 74.4891 58.2461 74.478 58.9428H74.5112C74.8761 58.4341 75.3129 58.0471 75.8216 57.7817C76.3413 57.5052 76.9439 57.367 77.6295 57.367C78.1492 57.367 78.6358 57.4665 79.0891 57.6656C79.5425 57.8646 79.9351 58.1411 80.2668 58.4949C80.6096 58.8377 80.8805 59.2413 81.0795 59.7057C81.2786 60.1702 81.3781 60.6622 81.3781 61.182C81.3781 61.7127 81.2786 62.2159 81.0795 62.6914C80.8916 63.1558 80.6206 63.5649 80.2668 63.9188C79.924 64.2726 79.5204 64.5546 79.056 64.7647C78.5915 64.9637 78.0939 65.0633 77.5632 65.0633ZM77.53 63.9354C77.8949 63.9354 78.2322 63.869 78.5418 63.7363C78.8625 63.6036 79.1334 63.4212 79.3545 63.189C79.5867 62.9457 79.7637 62.6582 79.8853 62.3264C80.018 61.9947 80.0843 61.6298 80.0843 61.2317C80.0843 60.8336 80.018 60.4687 79.8853 60.137C79.7526 59.7942 79.5702 59.5067 79.3379 59.2745C79.1057 59.0312 78.8293 58.8432 78.5086 58.7105C78.1879 58.5778 77.8451 58.5115 77.4802 58.5115C77.0711 58.5115 76.6951 58.5778 76.3523 58.7105C76.0206 58.8322 75.7331 59.0146 75.4898 59.2579C75.2466 59.4901 75.0586 59.7721 74.9259 60.1038C74.7932 60.4356 74.7268 60.806 74.7268 61.2151C74.7268 61.6132 74.7987 61.9837 74.9425 62.3264C75.0862 62.6582 75.2797 62.9457 75.523 63.189C75.7773 63.4212 76.0759 63.6036 76.4187 63.7363C76.7615 63.869 77.1319 63.9354 77.53 63.9354ZM86.5872 65.0633C86.0012 65.0633 85.4538 64.9803 84.9452 64.8145C84.4476 64.6375 84.0163 64.3943 83.6514 64.0846C83.2865 63.775 82.9935 63.4046 82.7723 62.9733C82.5511 62.5421 82.4295 62.0611 82.4074 61.5303H83.7841C83.8726 62.238 84.1545 62.8019 84.63 63.2221C85.1166 63.6313 85.7634 63.8358 86.5707 63.8358C87.3889 63.8358 88.0358 63.587 88.5113 63.0894C88.9978 62.5808 89.2411 61.9118 89.2411 61.0824C89.2411 60.6512 89.1692 60.2697 89.0255 59.938C88.8928 59.6062 88.7048 59.3243 88.4615 59.092C88.2183 58.8598 87.9363 58.6829 87.6156 58.5613C87.2949 58.4396 86.9466 58.3788 86.5707 58.3788C85.9514 58.3788 85.4317 58.4894 85.0115 58.7105C84.5913 58.9317 84.2596 59.2137 84.0163 59.5565H82.6728L83.9334 53.4526H89.9875V54.6966H84.912L84.1656 58.1134H84.1988C84.5194 57.8038 84.8954 57.5661 85.3267 57.4002C85.7579 57.2343 86.25 57.1514 86.8029 57.1514C87.3115 57.1514 87.7981 57.2399 88.2625 57.4168C88.7269 57.5937 89.1361 57.8536 89.4899 58.1964C89.8438 58.5281 90.1257 58.9428 90.3358 59.4404C90.557 59.9269 90.6676 60.4853 90.6676 61.1156C90.6676 61.7238 90.5625 62.2712 90.3524 62.7577C90.1534 63.2442 89.8714 63.6589 89.5065 64.0017C89.1416 64.3445 88.7103 64.6099 88.2127 64.7979C87.7151 64.9748 87.1733 65.0633 86.5872 65.0633Z" fill="white" />
    <path d="M113.464 59.6228H117.909V60.8502H113.464V59.6228ZM123.71 65.0633C123.08 65.0633 122.532 64.9748 122.068 64.7979C121.615 64.6209 121.217 64.3721 120.874 64.0515C120.266 63.4986 119.845 62.824 119.613 62.0279C119.381 61.2207 119.265 60.231 119.265 59.0589C119.265 58.1742 119.359 57.3725 119.547 56.6538C119.735 55.935 120.011 55.3213 120.376 54.8127C120.752 54.2929 121.211 53.8949 121.753 53.6184C122.306 53.3309 122.942 53.1872 123.66 53.1872C124.224 53.1872 124.722 53.2756 125.153 53.4526C125.584 53.6295 125.944 53.8617 126.231 54.1492C126.53 54.4367 126.762 54.774 126.928 55.161C127.094 55.537 127.199 55.9295 127.243 56.3386H125.866C125.844 56.0733 125.778 55.8189 125.667 55.5757C125.557 55.3324 125.408 55.1223 125.22 54.9454C125.043 54.7684 124.827 54.6302 124.573 54.5307C124.318 54.4201 124.025 54.3648 123.694 54.3648C123.141 54.3648 122.671 54.4754 122.284 54.6966C121.897 54.9067 121.582 55.2107 121.338 55.6088C121.106 56.0069 120.929 56.4879 120.807 57.0519C120.697 57.6158 120.636 58.2461 120.625 58.9428H120.658C121.023 58.4341 121.46 58.0471 121.969 57.7817C122.488 57.5052 123.091 57.367 123.776 57.367C124.296 57.367 124.783 57.4665 125.236 57.6656C125.689 57.8646 126.082 58.1411 126.414 58.4949C126.757 58.8377 127.027 59.2413 127.227 59.7057C127.426 60.1702 127.525 60.6622 127.525 61.182C127.525 61.7127 127.426 62.2159 127.227 62.6914C127.039 63.1558 126.768 63.5649 126.414 63.9188C126.071 64.2726 125.667 64.5546 125.203 64.7647C124.739 64.9637 124.241 65.0633 123.71 65.0633ZM123.677 63.9354C124.042 63.9354 124.379 63.869 124.689 63.7363C125.009 63.6036 125.28 63.4212 125.502 63.189C125.734 62.9457 125.911 62.6582 126.032 62.3264C126.165 61.9947 126.231 61.6298 126.231 61.2317C126.231 60.8336 126.165 60.4687 126.032 60.137C125.9 59.7942 125.717 59.5067 125.485 59.2745C125.253 59.0312 124.976 58.8432 124.656 58.7105C124.335 58.5778 123.992 58.5115 123.627 58.5115C123.218 58.5115 122.842 58.5778 122.499 58.7105C122.168 58.8322 121.88 59.0146 121.637 59.2579C121.394 59.4901 121.206 59.7721 121.073 60.1038C120.94 60.4356 120.874 60.806 120.874 61.2151C120.874 61.6132 120.946 61.9837 121.089 62.3264C121.233 62.6582 121.427 62.9457 121.67 63.189C121.924 63.4212 122.223 63.6036 122.566 63.7363C122.908 63.869 123.279 63.9354 123.677 63.9354ZM133.315 65.0633C132.618 65.0633 131.993 64.925 131.44 64.6486C130.899 64.3611 130.44 63.963 130.064 63.4543C129.688 62.9346 129.4 62.3099 129.201 61.58C129.002 60.8502 128.903 60.032 128.903 59.1252C128.903 58.2074 129.008 57.3836 129.218 56.6538C129.428 55.9129 129.727 55.2882 130.114 54.7795C130.501 54.2598 130.965 53.8672 131.507 53.6018C132.049 53.3254 132.657 53.1872 133.331 53.1872C134.006 53.1872 134.614 53.3254 135.156 53.6018C135.698 53.8672 136.157 54.2542 136.533 54.7629C136.92 55.2716 137.213 55.8963 137.412 56.6372C137.622 57.367 137.727 58.1964 137.727 59.1252C137.727 60.032 137.627 60.8502 137.428 61.58C137.24 62.3099 136.958 62.9346 136.582 63.4543C136.206 63.963 135.742 64.3611 135.189 64.6486C134.647 64.925 134.022 65.0633 133.315 65.0633ZM133.331 63.8524C134.338 63.8524 135.078 63.4322 135.554 62.5918C136.041 61.7514 136.284 60.5959 136.284 59.1252C136.284 58.4065 136.223 57.754 136.101 57.168C135.98 56.5819 135.792 56.0843 135.537 55.6752C135.294 55.255 134.99 54.9343 134.625 54.7131C134.26 54.492 133.829 54.3814 133.331 54.3814C132.325 54.3814 131.573 54.8071 131.076 55.6586C130.589 56.499 130.346 57.6545 130.346 59.1252C130.346 59.844 130.407 60.4964 130.528 61.0824C130.65 61.6685 130.832 62.1661 131.076 62.5752C131.33 62.9844 131.645 63.2995 132.021 63.5207C132.397 63.7418 132.834 63.8524 133.331 63.8524Z" fill="white" />
    <path d="M161.993 59.6228H166.438V60.8502H161.993V59.6228ZM172.119 65.0633C171.599 65.0633 171.08 65.0024 170.56 64.8808C170.04 64.7592 169.57 64.5601 169.15 64.2837C168.741 64.0072 168.409 63.6479 168.155 63.2055C167.901 62.7522 167.773 62.2048 167.773 61.5635C167.773 61.1543 167.834 60.7894 167.956 60.4687C168.078 60.1481 168.243 59.8716 168.453 59.6394C168.675 59.3961 168.923 59.1916 169.2 59.0257C169.487 58.8488 169.791 58.7105 170.112 58.611V58.5613C169.581 58.3622 169.15 58.0581 168.818 57.649C168.498 57.2399 168.337 56.7367 168.337 56.1396C168.337 55.6862 168.431 55.2771 168.619 54.9122C168.818 54.5473 169.084 54.2377 169.415 53.9833C169.758 53.7179 170.156 53.5189 170.61 53.3862C171.063 53.2425 171.55 53.1706 172.069 53.1706C172.589 53.1706 173.076 53.2425 173.529 53.3862C173.982 53.5189 174.375 53.7179 174.707 53.9833C175.049 54.2377 175.315 54.5473 175.503 54.9122C175.702 55.2771 175.801 55.6862 175.801 56.1396C175.801 56.7367 175.641 57.2399 175.32 57.649C175.011 58.0471 174.591 58.3512 174.06 58.5613V58.611C174.38 58.7105 174.679 58.8488 174.955 59.0257C175.243 59.1916 175.486 59.4017 175.685 59.656C175.895 59.8993 176.061 60.1812 176.183 60.5019C176.305 60.8226 176.365 61.1764 176.365 61.5635C176.365 62.2159 176.238 62.7632 175.984 63.2055C175.741 63.6479 175.42 64.0072 175.022 64.2837C174.624 64.5601 174.17 64.7592 173.662 64.8808C173.153 65.0024 172.639 65.0633 172.119 65.0633ZM172.119 63.9022C173.015 63.9022 173.711 63.6976 174.209 63.2885C174.718 62.8683 174.972 62.2933 174.972 61.5635C174.972 60.8115 174.718 60.2199 174.209 59.7887C173.7 59.3574 172.987 59.1418 172.069 59.1418C171.174 59.1418 170.472 59.3574 169.963 59.7887C169.454 60.2199 169.2 60.8115 169.2 61.5635C169.2 62.3043 169.454 62.8793 169.963 63.2885C170.483 63.6976 171.201 63.9022 172.119 63.9022ZM172.069 58.0471C172.799 58.0471 173.374 57.8867 173.794 57.5661C174.226 57.2343 174.441 56.7754 174.441 56.1894C174.441 55.6033 174.226 55.1499 173.794 54.8293C173.374 54.4975 172.799 54.3317 172.069 54.3317C171.34 54.3317 170.759 54.4975 170.328 54.8293C169.908 55.1499 169.697 55.6033 169.697 56.1894C169.697 56.7754 169.908 57.2343 170.328 57.5661C170.759 57.8867 171.34 58.0471 172.069 58.0471ZM181.474 65.0633C180.888 65.0633 180.34 64.9803 179.832 64.8145C179.334 64.6375 178.903 64.3943 178.538 64.0846C178.173 63.775 177.88 63.4046 177.659 62.9733C177.438 62.5421 177.316 62.0611 177.294 61.5303H178.671C178.759 62.238 179.041 62.8019 179.517 63.2221C180.003 63.6313 180.65 63.8358 181.457 63.8358C182.275 63.8358 182.922 63.587 183.398 63.0894C183.884 62.5808 184.128 61.9118 184.128 61.0824C184.128 60.6512 184.056 60.2697 183.912 59.938C183.779 59.6062 183.591 59.3243 183.348 59.092C183.105 58.8598 182.823 58.6829 182.502 58.5613C182.181 58.4396 181.833 58.3788 181.457 58.3788C180.838 58.3788 180.318 58.4894 179.898 58.7105C179.478 58.9317 179.146 59.2137 178.903 59.5565H177.559L178.82 53.4526H184.874V54.6966H179.799L179.052 58.1134H179.085C179.406 57.8038 179.782 57.5661 180.213 57.4002C180.644 57.2343 181.137 57.1514 181.689 57.1514C182.198 57.1514 182.685 57.2399 183.149 57.4168C183.613 57.5937 184.023 57.8536 184.376 58.1964C184.73 58.5281 185.012 58.9428 185.222 59.4404C185.444 59.9269 185.554 60.4853 185.554 61.1156C185.554 61.7238 185.449 62.2712 185.239 62.7577C185.04 63.2442 184.758 63.6589 184.393 64.0017C184.028 64.3445 183.597 64.6099 183.099 64.7979C182.602 64.9748 182.06 65.0633 181.474 65.0633Z" fill="white" />
    <path d="M208.221 59.6228H212.666V60.8502H208.221V59.6228ZM218.347 65.0633C217.827 65.0633 217.308 65.0024 216.788 64.8808C216.268 64.7592 215.798 64.5601 215.378 64.2837C214.969 64.0072 214.637 63.6479 214.383 63.2055C214.129 62.7522 214.001 62.2048 214.001 61.5635C214.001 61.1543 214.062 60.7894 214.184 60.4687C214.305 60.1481 214.471 59.8716 214.681 59.6394C214.903 59.3961 215.151 59.1916 215.428 59.0257C215.715 58.8488 216.019 58.7105 216.34 58.611V58.5613C215.809 58.3622 215.378 58.0581 215.046 57.649C214.726 57.2399 214.565 56.7367 214.565 56.1396C214.565 55.6862 214.659 55.2771 214.847 54.9122C215.046 54.5473 215.312 54.2377 215.643 53.9833C215.986 53.7179 216.384 53.5189 216.838 53.3862C217.291 53.2425 217.778 53.1706 218.297 53.1706C218.817 53.1706 219.304 53.2425 219.757 53.3862C220.21 53.5189 220.603 53.7179 220.935 53.9833C221.277 54.2377 221.543 54.5473 221.731 54.9122C221.93 55.2771 222.029 55.6862 222.029 56.1396C222.029 56.7367 221.869 57.2399 221.548 57.649C221.239 58.0471 220.819 58.3512 220.288 58.5613V58.611C220.608 58.7105 220.907 58.8488 221.183 59.0257C221.471 59.1916 221.714 59.4017 221.913 59.656C222.123 59.8993 222.289 60.1812 222.411 60.5019C222.532 60.8226 222.593 61.1764 222.593 61.5635C222.593 62.2159 222.466 62.7632 222.212 63.2055C221.969 63.6479 221.648 64.0072 221.25 64.2837C220.852 64.5601 220.398 64.7592 219.89 64.8808C219.381 65.0024 218.867 65.0633 218.347 65.0633ZM218.347 63.9022C219.243 63.9022 219.939 63.6976 220.437 63.2885C220.946 62.8683 221.2 62.2933 221.2 61.5635C221.2 60.8115 220.946 60.2199 220.437 59.7887C219.928 59.3574 219.215 59.1418 218.297 59.1418C217.402 59.1418 216.699 59.3574 216.191 59.7887C215.682 60.2199 215.428 60.8115 215.428 61.5635C215.428 62.3043 215.682 62.8793 216.191 63.2885C216.711 63.6976 217.429 63.9022 218.347 63.9022ZM218.297 58.0471C219.027 58.0471 219.602 57.8867 220.022 57.5661C220.454 57.2343 220.669 56.7754 220.669 56.1894C220.669 55.6033 220.454 55.1499 220.022 54.8293C219.602 54.4975 219.027 54.3317 218.297 54.3317C217.568 54.3317 216.987 54.4975 216.556 54.8293C216.136 55.1499 215.925 55.6033 215.925 56.1894C215.925 56.7754 216.136 57.2343 216.556 57.5661C216.987 57.8867 217.568 58.0471 218.297 58.0471ZM228.12 65.0633C227.424 65.0633 226.799 64.925 226.246 64.6486C225.704 64.3611 225.245 63.963 224.869 63.4543C224.493 62.9346 224.206 62.3099 224.007 61.58C223.808 60.8502 223.708 60.032 223.708 59.1252C223.708 58.2074 223.813 57.3836 224.023 56.6538C224.233 55.9129 224.532 55.2882 224.919 54.7795C225.306 54.2598 225.771 53.8672 226.312 53.6018C226.854 53.3254 227.462 53.1872 228.137 53.1872C228.811 53.1872 229.42 53.3254 229.961 53.6018C230.503 53.8672 230.962 54.2542 231.338 54.7629C231.725 55.2716 232.018 55.8963 232.217 56.6372C232.427 57.367 232.532 58.1964 232.532 59.1252C232.532 60.032 232.433 60.8502 232.234 61.58C232.046 62.3099 231.764 62.9346 231.388 63.4543C231.012 63.963 230.547 64.3611 229.995 64.6486C229.453 64.925 228.828 65.0633 228.12 65.0633ZM228.137 63.8524C229.143 63.8524 229.884 63.4322 230.36 62.5918C230.846 61.7514 231.089 60.5959 231.089 59.1252C231.089 58.4065 231.029 57.754 230.907 57.168C230.785 56.5819 230.597 56.0843 230.343 55.6752C230.1 55.255 229.796 54.9343 229.431 54.7131C229.066 54.492 228.634 54.3814 228.137 54.3814C227.131 54.3814 226.379 54.8071 225.881 55.6586C225.395 56.499 225.151 57.6545 225.151 59.1252C225.151 59.844 225.212 60.4964 225.334 61.0824C225.455 61.6685 225.638 62.1661 225.881 62.5752C226.135 62.9844 226.451 63.2995 226.827 63.5207C227.203 63.7418 227.639 63.8524 228.137 63.8524Z" fill="white" />
    <path d="M256.859 59.6228H261.304V60.8502H256.859V59.6228ZM263.338 64.8145C263.404 63.8193 263.576 62.8351 263.852 61.862C264.129 60.8779 264.482 59.9435 264.914 59.0589C265.345 58.1742 265.842 57.3615 266.406 56.6206C266.97 55.8797 267.573 55.2494 268.214 54.7297V54.6966H261.729V53.4526H269.674V54.597C269.088 55.1057 268.518 55.7139 267.966 56.4216C267.413 57.1293 266.91 57.9199 266.456 58.7935C266.014 59.656 265.643 60.5959 265.345 61.6132C265.057 62.6195 264.886 63.6866 264.831 64.8145H263.338ZM274.17 65.0633C273.584 65.0633 273.036 64.9803 272.528 64.8145C272.03 64.6375 271.599 64.3943 271.234 64.0846C270.869 63.775 270.576 63.4046 270.355 62.9733C270.134 62.5421 270.012 62.0611 269.99 61.5303H271.367C271.455 62.238 271.737 62.8019 272.213 63.2221C272.699 63.6313 273.346 63.8358 274.153 63.8358C274.971 63.8358 275.618 63.587 276.094 63.0894C276.58 62.5808 276.824 61.9118 276.824 61.0824C276.824 60.6512 276.752 60.2697 276.608 59.938C276.475 59.6062 276.287 59.3243 276.044 59.092C275.801 58.8598 275.519 58.6829 275.198 58.5613C274.877 58.4396 274.529 58.3788 274.153 58.3788C273.534 58.3788 273.014 58.4894 272.594 58.7105C272.174 58.9317 271.842 59.2137 271.599 59.5565H270.255L271.516 53.4526H277.57V54.6966H272.495L271.748 58.1134H271.781C272.102 57.8038 272.478 57.5661 272.909 57.4002C273.34 57.2343 273.833 57.1514 274.385 57.1514C274.894 57.1514 275.381 57.2399 275.845 57.4168C276.309 57.5937 276.719 57.8536 277.072 58.1964C277.426 58.5281 277.708 58.9428 277.918 59.4404C278.14 59.9269 278.25 60.4853 278.25 61.1156C278.25 61.7238 278.145 62.2712 277.935 62.7577C277.736 63.2442 277.454 63.6589 277.089 64.0017C276.724 64.3445 276.293 64.6099 275.795 64.7979C275.298 64.9748 274.756 65.0633 274.17 65.0633Z" fill="white" />
    <path d="M304.191 59.6228H308.636V60.8502H304.191V59.6228ZM310.669 64.8145C310.736 63.8193 310.907 62.8351 311.184 61.862C311.46 60.8779 311.814 59.9435 312.245 59.0589C312.676 58.1742 313.174 57.3615 313.738 56.6206C314.302 55.8797 314.905 55.2494 315.546 54.7297V54.6966H309.061V53.4526H317.006V54.597C316.419 55.1057 315.85 55.7139 315.297 56.4216C314.744 57.1293 314.241 57.9199 313.788 58.7935C313.345 59.656 312.975 60.5959 312.676 61.6132C312.389 62.6195 312.218 63.6866 312.162 64.8145H310.669ZM322.082 65.0633C321.385 65.0633 320.76 64.925 320.208 64.6486C319.666 64.3611 319.207 63.963 318.831 63.4543C318.455 62.9346 318.167 62.3099 317.968 61.58C317.769 60.8502 317.67 60.032 317.67 59.1252C317.67 58.2074 317.775 57.3836 317.985 56.6538C318.195 55.9129 318.494 55.2882 318.881 54.7795C319.268 54.2598 319.732 53.8672 320.274 53.6018C320.816 53.3254 321.424 53.1872 322.098 53.1872C322.773 53.1872 323.381 53.3254 323.923 53.6018C324.465 53.8672 324.924 54.2542 325.3 54.7629C325.687 55.2716 325.98 55.8963 326.179 56.6372C326.389 57.367 326.494 58.1964 326.494 59.1252C326.494 60.032 326.394 60.8502 326.195 61.58C326.007 62.3099 325.725 62.9346 325.349 63.4543C324.973 63.963 324.509 64.3611 323.956 64.6486C323.414 64.925 322.79 65.0633 322.082 65.0633ZM322.098 63.8524C323.105 63.8524 323.846 63.4322 324.321 62.5918C324.808 61.7514 325.051 60.5959 325.051 59.1252C325.051 58.4065 324.99 57.754 324.868 57.168C324.747 56.5819 324.559 56.0843 324.304 55.6752C324.061 55.255 323.757 54.9343 323.392 54.7131C323.027 54.492 322.596 54.3814 322.098 54.3814C321.092 54.3814 320.34 54.8071 319.843 55.6586C319.356 56.499 319.113 57.6545 319.113 59.1252C319.113 59.844 319.174 60.4964 319.295 61.0824C319.417 61.6685 319.599 62.1661 319.843 62.5752C320.097 62.9844 320.412 63.2995 320.788 63.5207C321.164 63.7418 321.601 63.8524 322.098 63.8524Z" fill="white" />
    <path d="M351.66 59.6228H356.105V60.8502H351.66V59.6228ZM361.907 65.0633C361.276 65.0633 360.729 64.9748 360.265 64.7979C359.811 64.6209 359.413 64.3721 359.07 64.0515C358.462 63.4986 358.042 62.824 357.81 62.0279C357.578 61.2207 357.461 60.231 357.461 59.0589C357.461 58.1742 357.555 57.3725 357.743 56.6538C357.931 55.935 358.208 55.3213 358.573 54.8127C358.949 54.2929 359.408 53.8949 359.949 53.6184C360.502 53.3309 361.138 53.1872 361.857 53.1872C362.421 53.1872 362.918 53.2756 363.35 53.4526C363.781 53.6295 364.14 53.8617 364.428 54.1492C364.726 54.4367 364.959 54.774 365.124 55.161C365.29 55.537 365.395 55.9295 365.44 56.3386H364.063C364.041 56.0733 363.974 55.8189 363.864 55.5757C363.753 55.3324 363.604 55.1223 363.416 54.9454C363.239 54.7684 363.024 54.6302 362.769 54.5307C362.515 54.4201 362.222 54.3648 361.89 54.3648C361.337 54.3648 360.867 54.4754 360.48 54.6966C360.093 54.9067 359.778 55.2107 359.535 55.6088C359.303 56.0069 359.126 56.4879 359.004 57.0519C358.893 57.6158 358.833 58.2461 358.822 58.9428H358.855C359.22 58.4341 359.656 58.0471 360.165 57.7817C360.685 57.5052 361.287 57.367 361.973 57.367C362.493 57.367 362.979 57.4665 363.433 57.6656C363.886 57.8646 364.279 58.1411 364.61 58.4949C364.953 58.8377 365.224 59.2413 365.423 59.7057C365.622 60.1702 365.722 60.6622 365.722 61.182C365.722 61.7127 365.622 62.2159 365.423 62.6914C365.235 63.1558 364.964 63.5649 364.61 63.9188C364.268 64.2726 363.864 64.5546 363.399 64.7647C362.935 64.9637 362.437 65.0633 361.907 65.0633ZM361.873 63.9354C362.238 63.9354 362.576 63.869 362.885 63.7363C363.206 63.6036 363.477 63.4212 363.698 63.189C363.93 62.9457 364.107 62.6582 364.229 62.3264C364.362 61.9947 364.428 61.6298 364.428 61.2317C364.428 60.8336 364.362 60.4687 364.229 60.137C364.096 59.7942 363.914 59.5067 363.681 59.2745C363.449 59.0312 363.173 58.8432 362.852 58.7105C362.531 58.5778 362.189 58.5115 361.824 58.5115C361.415 58.5115 361.039 58.5778 360.696 58.7105C360.364 58.8322 360.077 59.0146 359.833 59.2579C359.59 59.4901 359.402 59.7721 359.269 60.1038C359.137 60.4356 359.07 60.806 359.07 61.2151C359.07 61.6132 359.142 61.9837 359.286 62.3264C359.43 62.6582 359.623 62.9457 359.867 63.189C360.121 63.4212 360.419 63.6036 360.762 63.7363C361.105 63.869 361.475 63.9354 361.873 63.9354ZM370.931 65.0633C370.345 65.0633 369.797 64.9803 369.289 64.8145C368.791 64.6375 368.36 64.3943 367.995 64.0846C367.63 63.775 367.337 63.4046 367.116 62.9733C366.895 62.5421 366.773 62.0611 366.751 61.5303H368.128C368.216 62.238 368.498 62.8019 368.974 63.2221C369.46 63.6313 370.107 63.8358 370.914 63.8358C371.732 63.8358 372.379 63.587 372.855 63.0894C373.341 62.5808 373.585 61.9118 373.585 61.0824C373.585 60.6512 373.513 60.2697 373.369 59.938C373.236 59.6062 373.048 59.3243 372.805 59.092C372.562 58.8598 372.28 58.6829 371.959 58.5613C371.638 58.4396 371.29 58.3788 370.914 58.3788C370.295 58.3788 369.775 58.4894 369.355 58.7105C368.935 58.9317 368.603 59.2137 368.36 59.5565H367.016L368.277 53.4526H374.331V54.6966H369.255L368.509 58.1134H368.542C368.863 57.8038 369.239 57.5661 369.67 57.4002C370.101 57.2343 370.593 57.1514 371.146 57.1514C371.655 57.1514 372.142 57.2399 372.606 57.4168C373.07 57.5937 373.48 57.8536 373.833 58.1964C374.187 58.5281 374.469 58.9428 374.679 59.4404C374.901 59.9269 375.011 60.4853 375.011 61.1156C375.011 61.7238 374.906 62.2712 374.696 62.7577C374.497 63.2442 374.215 63.6589 373.85 64.0017C373.485 64.3445 373.054 64.6099 372.556 64.7979C372.059 64.9748 371.517 65.0633 370.931 65.0633Z" fill="white" />
    <path d="M397.807 59.6228H402.253V60.8502H397.807V59.6228ZM408.054 65.0633C407.424 65.0633 406.876 64.9748 406.412 64.7979C405.958 64.6209 405.56 64.3721 405.218 64.0515C404.609 63.4986 404.189 62.824 403.957 62.0279C403.725 61.2207 403.609 60.231 403.609 59.0589C403.609 58.1742 403.703 57.3725 403.891 56.6538C404.079 55.935 404.355 55.3213 404.72 54.8127C405.096 54.2929 405.555 53.8949 406.097 53.6184C406.65 53.3309 407.285 53.1872 408.004 53.1872C408.568 53.1872 409.066 53.2756 409.497 53.4526C409.928 53.6295 410.288 53.8617 410.575 54.1492C410.874 54.4367 411.106 54.774 411.272 55.161C411.438 55.537 411.543 55.9295 411.587 56.3386H410.21C410.188 56.0733 410.122 55.8189 410.011 55.5757C409.901 55.3324 409.751 55.1223 409.563 54.9454C409.386 54.7684 409.171 54.6302 408.916 54.5307C408.662 54.4201 408.369 54.3648 408.037 54.3648C407.484 54.3648 407.014 54.4754 406.627 54.6966C406.24 54.9067 405.925 55.2107 405.682 55.6088C405.45 56.0069 405.273 56.4879 405.151 57.0519C405.041 57.6158 404.98 58.2461 404.969 58.9428H405.002C405.367 58.4341 405.804 58.0471 406.312 57.7817C406.832 57.5052 407.435 57.367 408.12 57.367C408.64 57.367 409.127 57.4665 409.58 57.6656C410.033 57.8646 410.426 58.1411 410.758 58.4949C411.1 58.8377 411.371 59.2413 411.57 59.7057C411.769 60.1702 411.869 60.6622 411.869 61.182C411.869 61.7127 411.769 62.2159 411.57 62.6914C411.382 63.1558 411.111 63.5649 410.758 63.9188C410.415 64.2726 410.011 64.5546 409.547 64.7647C409.082 64.9637 408.585 65.0633 408.054 65.0633ZM408.021 63.9354C408.386 63.9354 408.723 63.869 409.033 63.7363C409.353 63.6036 409.624 63.4212 409.845 63.189C410.077 62.9457 410.254 62.6582 410.376 62.3264C410.509 61.9947 410.575 61.6298 410.575 61.2317C410.575 60.8336 410.509 60.4687 410.376 60.137C410.243 59.7942 410.061 59.5067 409.829 59.2745C409.596 59.0312 409.32 58.8432 408.999 58.7105C408.679 58.5778 408.336 58.5115 407.971 58.5115C407.562 58.5115 407.186 58.5778 406.843 58.7105C406.511 58.8322 406.224 59.0146 405.981 59.2579C405.737 59.4901 405.549 59.7721 405.417 60.1038C405.284 60.4356 405.218 60.806 405.218 61.2151C405.218 61.6132 405.289 61.9837 405.433 62.3264C405.577 62.6582 405.77 62.9457 406.014 63.189C406.268 63.4212 406.567 63.6036 406.909 63.7363C407.252 63.869 407.623 63.9354 408.021 63.9354ZM417.659 65.0633C416.962 65.0633 416.337 64.925 415.784 64.6486C415.242 64.3611 414.783 63.963 414.408 63.4543C414.032 62.9346 413.744 62.3099 413.545 61.58C413.346 60.8502 413.246 60.032 413.246 59.1252C413.246 58.2074 413.351 57.3836 413.562 56.6538C413.772 55.9129 414.07 55.2882 414.457 54.7795C414.844 54.2598 415.309 53.8672 415.851 53.6018C416.392 53.3254 417.001 53.1872 417.675 53.1872C418.35 53.1872 418.958 53.3254 419.5 53.6018C420.041 53.8672 420.5 54.2542 420.876 54.7629C421.263 55.2716 421.556 55.8963 421.755 56.6372C421.966 57.367 422.071 58.1964 422.071 59.1252C422.071 60.032 421.971 60.8502 421.772 61.58C421.584 62.3099 421.302 62.9346 420.926 63.4543C420.55 63.963 420.086 64.3611 419.533 64.6486C418.991 64.925 418.366 65.0633 417.659 65.0633ZM417.675 63.8524C418.681 63.8524 419.422 63.4322 419.898 62.5918C420.384 61.7514 420.628 60.5959 420.628 59.1252C420.628 58.4065 420.567 57.754 420.445 57.168C420.323 56.5819 420.135 56.0843 419.881 55.6752C419.638 55.255 419.334 54.9343 418.969 54.7131C418.604 54.492 418.173 54.3814 417.675 54.3814C416.669 54.3814 415.917 54.8071 415.419 55.6586C414.933 56.499 414.689 57.6545 414.689 59.1252C414.689 59.844 414.75 60.4964 414.872 61.0824C414.994 61.6685 415.176 62.1661 415.419 62.5752C415.674 62.9844 415.989 63.2995 416.365 63.5207C416.741 63.7418 417.177 63.8524 417.675 63.8524Z" fill="white" />
    <path d="M446.676 59.6228H451.122V60.8502H446.676V59.6228ZM456.309 65.0633C455.723 65.0633 455.176 64.9803 454.667 64.8145C454.169 64.6375 453.738 64.3943 453.373 64.0846C453.008 63.775 452.715 63.4046 452.494 62.9733C452.273 62.5421 452.151 62.0611 452.129 61.5303H453.506C453.594 62.238 453.876 62.8019 454.352 63.2221C454.838 63.6313 455.485 63.8358 456.292 63.8358C457.111 63.8358 457.758 63.587 458.233 63.0894C458.72 62.5808 458.963 61.9118 458.963 61.0824C458.963 60.6512 458.891 60.2697 458.747 59.938C458.615 59.6062 458.427 59.3243 458.183 59.092C457.94 58.8598 457.658 58.6829 457.337 58.5613C457.017 58.4396 456.668 58.3788 456.292 58.3788C455.673 58.3788 455.154 58.4894 454.733 58.7105C454.313 58.9317 453.981 59.2137 453.738 59.5565H452.395L453.655 53.4526H459.709V54.6966H454.634L453.887 58.1134H453.921C454.241 57.8038 454.617 57.5661 455.048 57.4002C455.48 57.2343 455.972 57.1514 456.525 57.1514C457.033 57.1514 457.52 57.2399 457.984 57.4168C458.449 57.5937 458.858 57.8536 459.212 58.1964C459.566 58.5281 459.848 58.9428 460.058 59.4404C460.279 59.9269 460.389 60.4853 460.389 61.1156C460.389 61.7238 460.284 62.2712 460.074 62.7577C459.875 63.2442 459.593 63.6589 459.228 64.0017C458.863 64.3445 458.432 64.6099 457.935 64.7979C457.437 64.9748 456.895 65.0633 456.309 65.0633ZM465.477 65.0633C464.891 65.0633 464.344 64.9803 463.835 64.8145C463.337 64.6375 462.906 64.3943 462.541 64.0846C462.176 63.775 461.883 63.4046 461.662 62.9733C461.441 62.5421 461.319 62.0611 461.297 61.5303H462.674C462.762 62.238 463.044 62.8019 463.52 63.2221C464.006 63.6313 464.653 63.8358 465.461 63.8358C466.279 63.8358 466.926 63.587 467.401 63.0894C467.888 62.5808 468.131 61.9118 468.131 61.0824C468.131 60.6512 468.059 60.2697 467.915 59.938C467.783 59.6062 467.595 59.3243 467.351 59.092C467.108 58.8598 466.826 58.6829 466.506 58.5613C466.185 58.4396 465.837 58.3788 465.461 58.3788C464.841 58.3788 464.322 58.4894 463.901 58.7105C463.481 58.9317 463.149 59.2137 462.906 59.5565H461.563L462.823 53.4526H468.877V54.6966H463.802L463.055 58.1134H463.089C463.409 57.8038 463.785 57.5661 464.217 57.4002C464.648 57.2343 465.14 57.1514 465.693 57.1514C466.201 57.1514 466.688 57.2399 467.152 57.4168C467.617 57.5937 468.026 57.8536 468.38 58.1964C468.734 58.5281 469.016 58.9428 469.226 59.4404C469.447 59.9269 469.557 60.4853 469.557 61.1156C469.557 61.7238 469.452 62.2712 469.242 62.7577C469.043 63.2442 468.761 63.6589 468.396 64.0017C468.031 64.3445 467.6 64.6099 467.103 64.7979C466.605 64.9748 466.063 65.0633 465.477 65.0633Z" fill="white" />
    <path d="M492.823 59.6228H497.269V60.8502H492.823V59.6228ZM502.456 65.0633C501.87 65.0633 501.323 64.9803 500.814 64.8145C500.316 64.6375 499.885 64.3943 499.52 64.0846C499.155 63.775 498.862 63.4046 498.641 62.9733C498.42 62.5421 498.298 62.0611 498.276 61.5303H499.653C499.741 62.238 500.023 62.8019 500.499 63.2221C500.985 63.6313 501.632 63.8358 502.439 63.8358C503.258 63.8358 503.905 63.587 504.38 63.0894C504.867 62.5808 505.11 61.9118 505.11 61.0824C505.11 60.6512 505.038 60.2697 504.894 59.938C504.762 59.6062 504.574 59.3243 504.33 59.092C504.087 58.8598 503.805 58.6829 503.484 58.5613C503.164 58.4396 502.815 58.3788 502.439 58.3788C501.82 58.3788 501.301 58.4894 500.88 58.7105C500.46 58.9317 500.128 59.2137 499.885 59.5565H498.542L499.802 53.4526H505.856V54.6966H500.781L500.034 58.1134H500.068C500.388 57.8038 500.764 57.5661 501.195 57.4002C501.627 57.2343 502.119 57.1514 502.672 57.1514C503.18 57.1514 503.667 57.2399 504.131 57.4168C504.596 57.5937 505.005 57.8536 505.359 58.1964C505.713 58.5281 505.995 58.9428 506.205 59.4404C506.426 59.9269 506.536 60.4853 506.536 61.1156C506.536 61.7238 506.431 62.2712 506.221 62.7577C506.022 63.2442 505.74 63.6589 505.375 64.0017C505.01 64.3445 504.579 64.6099 504.082 64.7979C503.584 64.9748 503.042 65.0633 502.456 65.0633ZM512.205 65.0633C511.508 65.0633 510.883 64.925 510.33 64.6486C509.789 64.3611 509.33 63.963 508.954 63.4543C508.578 62.9346 508.29 62.3099 508.091 61.58C507.892 60.8502 507.793 60.032 507.793 59.1252C507.793 58.2074 507.898 57.3836 508.108 56.6538C508.318 55.9129 508.616 55.2882 509.003 54.7795C509.39 54.2598 509.855 53.8672 510.397 53.6018C510.939 53.3254 511.547 53.1872 512.221 53.1872C512.896 53.1872 513.504 53.3254 514.046 53.6018C514.588 53.8672 515.046 54.2542 515.422 54.7629C515.809 55.2716 516.103 55.8963 516.302 56.6372C516.512 57.367 516.617 58.1964 516.617 59.1252C516.617 60.032 516.517 60.8502 516.318 61.58C516.13 62.3099 515.848 62.9346 515.472 63.4543C515.096 63.963 514.632 64.3611 514.079 64.6486C513.537 64.925 512.912 65.0633 512.205 65.0633ZM512.221 63.8524C513.227 63.8524 513.968 63.4322 514.444 62.5918C514.93 61.7514 515.174 60.5959 515.174 59.1252C515.174 58.4065 515.113 57.754 514.991 57.168C514.87 56.5819 514.682 56.0843 514.427 55.6752C514.184 55.255 513.88 54.9343 513.515 54.7131C513.15 54.492 512.719 54.3814 512.221 54.3814C511.215 54.3814 510.463 54.8071 509.965 55.6586C509.479 56.499 509.236 57.6545 509.236 59.1252C509.236 59.844 509.296 60.4964 509.418 61.0824C509.54 61.6685 509.722 62.1661 509.965 62.5752C510.22 62.9844 510.535 63.2995 510.911 63.5207C511.287 63.7418 511.724 63.8524 512.221 63.8524Z" fill="white" />
    <path d="M541.344 59.6228H545.789V60.8502H541.344V59.6228ZM552.204 62.0279H546.847V60.7839L552.47 53.3364H553.564L553.564 60.9166H555.439V62.0279H553.564V64.8145H552.204V62.0279ZM548.19 60.9166H552.204L552.204 55.5922H552.171L548.19 60.8668V60.9166ZM560.372 65.0633C559.786 65.0633 559.238 64.9803 558.73 64.8145C558.232 64.6375 557.801 64.3943 557.436 64.0846C557.071 63.775 556.778 63.4046 556.557 62.9733C556.336 62.5421 556.214 62.0611 556.192 61.5303H557.569C557.657 62.238 557.939 62.8019 558.415 63.2221C558.901 63.6313 559.548 63.8358 560.355 63.8358C561.173 63.8358 561.82 63.587 562.296 63.0894C562.782 62.5808 563.026 61.9118 563.026 61.0824C563.026 60.6512 562.954 60.2697 562.81 59.938C562.677 59.6062 562.489 59.3243 562.246 59.092C562.003 58.8598 561.721 58.6829 561.4 58.5613C561.079 58.4396 560.731 58.3788 560.355 58.3788C559.736 58.3788 559.216 58.4894 558.796 58.7105C558.376 58.9317 558.044 59.2137 557.801 59.5565H556.457L557.718 53.4526H563.772V54.6966H558.697L557.95 58.1134H557.983C558.304 57.8038 558.68 57.5661 559.111 57.4002C559.542 57.2343 560.035 57.1514 560.587 57.1514C561.096 57.1514 561.583 57.2399 562.047 57.4168C562.511 57.5937 562.921 57.8536 563.274 58.1964C563.628 58.5281 563.91 58.9428 564.12 59.4404C564.342 59.9269 564.452 60.4853 564.452 61.1156C564.452 61.7238 564.347 62.2712 564.137 62.7577C563.938 63.2442 563.656 63.6589 563.291 64.0017C562.926 64.3445 562.495 64.6099 561.997 64.7979C561.5 64.9748 560.958 65.0633 560.372 65.0633Z" fill="white" />
    <path d="M587.491 59.6228H591.936V60.8502H587.491V59.6228ZM598.351 62.0279H592.994V60.7839L598.617 53.3364H599.711L599.711 60.9166H601.586V62.0279H599.711V64.8145H598.351V62.0279ZM594.337 60.9166H598.351L598.351 55.5922H598.318L594.337 60.8668V60.9166ZM607.099 65.0633C606.403 65.0633 605.778 64.925 605.225 64.6486C604.683 64.3611 604.224 63.963 603.848 63.4543C603.472 62.9346 603.185 62.3099 602.986 61.58C602.787 60.8502 602.687 60.032 602.687 59.1252C602.687 58.2074 602.792 57.3836 603.002 56.6538C603.212 55.9129 603.511 55.2882 603.898 54.7795C604.285 54.2598 604.749 53.8672 605.291 53.6018C605.833 53.3254 606.441 53.1872 607.116 53.1872C607.79 53.1872 608.399 53.3254 608.94 53.6018C609.482 53.8672 609.941 54.2542 610.317 54.7629C610.704 55.2716 610.997 55.8963 611.196 56.6372C611.406 57.367 611.511 58.1964 611.511 59.1252C611.511 60.032 611.412 60.8502 611.213 61.58C611.025 62.3099 610.743 62.9346 610.367 63.4543C609.991 63.963 609.526 64.3611 608.974 64.6486C608.432 64.925 607.807 65.0633 607.099 65.0633ZM607.116 63.8524C608.122 63.8524 608.863 63.4322 609.338 62.5918C609.825 61.7514 610.068 60.5959 610.068 59.1252C610.068 58.4065 610.007 57.754 609.886 57.168C609.764 56.5819 609.576 56.0843 609.322 55.6752C609.079 55.255 608.775 54.9343 608.41 54.7131C608.045 54.492 607.613 54.3814 607.116 54.3814C606.11 54.3814 605.358 54.8071 604.86 55.6586C604.374 56.499 604.13 57.6545 604.13 59.1252C604.13 59.844 604.191 60.4964 604.313 61.0824C604.434 61.6685 604.617 62.1661 604.86 62.5752C605.114 62.9844 605.43 63.2995 605.806 63.5207C606.181 63.7418 606.618 63.8524 607.116 63.8524Z" fill="white" />
    <path d="M636.101 59.6228H640.546V60.8502H636.101V59.6228ZM645.999 65.0633C645.369 65.0633 644.783 64.9803 644.241 64.8145C643.699 64.6375 643.224 64.3777 642.815 64.0349C642.406 63.6921 642.079 63.2774 641.836 62.7909C641.604 62.2933 641.482 61.7183 641.471 61.0659H642.848C642.87 61.9837 643.157 62.6858 643.71 63.1724C644.263 63.6589 645.01 63.9022 645.95 63.9022C646.735 63.9022 647.376 63.7087 647.874 63.3216C648.382 62.9236 648.637 62.3209 648.637 61.5137C648.637 60.7839 648.377 60.2365 647.857 59.8716C647.348 59.4956 646.613 59.3077 645.651 59.3077H644.938V58.2295H645.634C646.53 58.2295 647.199 58.0581 647.641 57.7153C648.084 57.3615 648.305 56.8805 648.305 56.2723C648.305 55.9627 648.238 55.6862 648.106 55.443C647.973 55.1886 647.796 54.9785 647.575 54.8127C647.354 54.6357 647.094 54.503 646.795 54.4146C646.497 54.3261 646.176 54.2819 645.833 54.2819C645.004 54.2819 644.357 54.5252 643.893 55.0117C643.439 55.4872 643.213 56.123 643.213 56.9192H641.853C641.853 56.3552 641.947 55.8466 642.135 55.3932C642.323 54.9288 642.588 54.5362 642.931 54.2155C643.285 53.8838 643.705 53.6295 644.191 53.4526C644.689 53.2756 645.253 53.1872 645.883 53.1872C646.414 53.1872 646.906 53.259 647.359 53.4028C647.824 53.5355 648.222 53.7345 648.554 53.9999C648.896 54.2653 649.167 54.5915 649.366 54.9785C649.565 55.3656 649.665 55.8079 649.665 56.3055C649.665 56.9468 649.488 57.461 649.134 57.848C648.791 58.224 648.344 58.506 647.791 58.694V58.7437C648.587 58.9538 649.167 59.3077 649.532 59.8053C649.897 60.2918 650.08 60.9055 650.08 61.6464C650.08 62.1882 649.975 62.6748 649.764 63.106C649.554 63.5262 649.267 63.8801 648.902 64.1676C648.537 64.4551 648.106 64.6762 647.608 64.831C647.111 64.9858 646.574 65.0633 645.999 65.0633ZM655.177 65.0633C654.591 65.0633 654.044 64.9803 653.535 64.8145C653.038 64.6375 652.606 64.3943 652.241 64.0846C651.877 63.775 651.584 63.4046 651.362 62.9733C651.141 62.5421 651.02 62.0611 650.997 61.5303H652.374C652.463 62.238 652.745 62.8019 653.22 63.2221C653.707 63.6313 654.354 63.8358 655.161 63.8358C655.979 63.8358 656.626 63.587 657.101 63.0894C657.588 62.5808 657.831 61.9118 657.831 61.0824C657.831 60.6512 657.759 60.2697 657.616 59.938C657.483 59.6062 657.295 59.3243 657.052 59.092C656.808 58.8598 656.526 58.6829 656.206 58.5613C655.885 58.4396 655.537 58.3788 655.161 58.3788C654.541 58.3788 654.022 58.4894 653.602 58.7105C653.181 58.9317 652.85 59.2137 652.606 59.5565H651.263L652.523 53.4526H658.578V54.6966H653.502L652.756 58.1134H652.789C653.11 57.8038 653.485 57.5661 653.917 57.4002C654.348 57.2343 654.84 57.1514 655.393 57.1514C655.902 57.1514 656.388 57.2399 656.853 57.4168C657.317 57.5937 657.726 57.8536 658.08 58.1964C658.434 58.5281 658.716 58.9428 658.926 59.4404C659.147 59.9269 659.258 60.4853 659.258 61.1156C659.258 61.7238 659.153 62.2712 658.942 62.7577C658.743 63.2442 658.461 63.6589 658.097 64.0017C657.732 64.3445 657.3 64.6099 656.803 64.7979C656.305 64.9748 655.763 65.0633 655.177 65.0633Z" fill="white" />
    <path d="M682.248 59.6228H686.693V60.8502H682.248V59.6228ZM692.146 65.0633C691.516 65.0633 690.93 64.9803 690.388 64.8145C689.846 64.6375 689.371 64.3777 688.962 64.0349C688.552 63.6921 688.226 63.2774 687.983 62.7909C687.751 62.2933 687.629 61.7183 687.618 61.0659H688.995C689.017 61.9837 689.304 62.6858 689.857 63.1724C690.41 63.6589 691.157 63.9022 692.097 63.9022C692.882 63.9022 693.523 63.7087 694.021 63.3216C694.529 62.9236 694.784 62.3209 694.784 61.5137C694.784 60.7839 694.524 60.2365 694.004 59.8716C693.495 59.4956 692.76 59.3077 691.798 59.3077H691.085V58.2295H691.781C692.677 58.2295 693.346 58.0581 693.788 57.7153C694.231 57.3615 694.452 56.8805 694.452 56.2723C694.452 55.9627 694.385 55.6862 694.253 55.443C694.12 55.1886 693.943 54.9785 693.722 54.8127C693.501 54.6357 693.241 54.503 692.942 54.4146C692.644 54.3261 692.323 54.2819 691.98 54.2819C691.151 54.2819 690.504 54.5252 690.04 55.0117C689.586 55.4872 689.36 56.123 689.36 56.9192H688C688 56.3552 688.094 55.8466 688.282 55.3932C688.47 54.9288 688.735 54.5362 689.078 54.2155C689.432 53.8838 689.852 53.6295 690.338 53.4526C690.836 53.2756 691.4 53.1872 692.03 53.1872C692.561 53.1872 693.053 53.259 693.506 53.4028C693.971 53.5355 694.369 53.7345 694.701 53.9999C695.043 54.2653 695.314 54.5915 695.513 54.9785C695.712 55.3656 695.812 55.8079 695.812 56.3055C695.812 56.9468 695.635 57.461 695.281 57.848C694.938 58.224 694.491 58.506 693.938 58.694V58.7437C694.734 58.9538 695.314 59.3077 695.679 59.8053C696.044 60.2918 696.227 60.9055 696.227 61.6464C696.227 62.1882 696.122 62.6748 695.911 63.106C695.701 63.5262 695.414 63.8801 695.049 64.1676C694.684 64.4551 694.253 64.6762 693.755 64.831C693.258 64.9858 692.721 65.0633 692.146 65.0633ZM701.905 65.0633C701.208 65.0633 700.583 64.925 700.031 64.6486C699.489 64.3611 699.03 63.963 698.654 63.4543C698.278 62.9346 697.99 62.3099 697.791 61.58C697.592 60.8502 697.493 60.032 697.493 59.1252C697.493 58.2074 697.598 57.3836 697.808 56.6538C698.018 55.9129 698.317 55.2882 698.704 54.7795C699.091 54.2598 699.555 53.8672 700.097 53.6018C700.639 53.3254 701.247 53.1872 701.921 53.1872C702.596 53.1872 703.204 53.3254 703.746 53.6018C704.288 53.8672 704.747 54.2542 705.123 54.7629C705.51 55.2716 705.803 55.8963 706.002 56.6372C706.212 57.367 706.317 58.1964 706.317 59.1252C706.317 60.032 706.217 60.8502 706.018 61.58C705.83 62.3099 705.548 62.9346 705.172 63.4543C704.796 63.963 704.332 64.3611 703.779 64.6486C703.237 64.925 702.613 65.0633 701.905 65.0633ZM701.921 63.8524C702.928 63.8524 703.669 63.4322 704.144 62.5918C704.631 61.7514 704.874 60.5959 704.874 59.1252C704.874 58.4065 704.813 57.754 704.691 57.168C704.57 56.5819 704.382 56.0843 704.127 55.6752C703.884 55.255 703.58 54.9343 703.215 54.7131C702.85 54.492 702.419 54.3814 701.921 54.3814C700.915 54.3814 700.163 54.8071 699.666 55.6586C699.179 56.499 698.936 57.6545 698.936 59.1252C698.936 59.844 698.997 60.4964 699.118 61.0824C699.24 61.6685 699.422 62.1661 699.666 62.5752C699.92 62.9844 700.235 63.2995 700.611 63.5207C700.987 63.7418 701.424 63.8524 701.921 63.8524Z" fill="white" />
    <path d="M730.577 59.6228H735.022V60.8502H730.577V59.6228ZM736 64.8145C736.034 64.0515 736.177 63.4046 736.432 62.8738C736.697 62.332 737.029 61.862 737.427 61.4639C737.836 61.0659 738.284 60.7175 738.77 60.419C739.268 60.1094 739.766 59.8108 740.263 59.5233C740.639 59.3132 740.971 59.1142 741.258 58.9262C741.557 58.7271 741.811 58.5226 742.021 58.3125C742.231 58.0913 742.392 57.8536 742.502 57.5992C742.613 57.3449 742.668 57.0463 742.668 56.7036C742.668 56.0069 742.447 55.443 742.005 55.0117C741.562 54.5805 740.96 54.3648 740.197 54.3648C739.799 54.3648 739.45 54.4312 739.152 54.5639C738.853 54.6855 738.599 54.8569 738.389 55.0781C738.168 55.3213 738.002 55.6144 737.891 55.9571C737.792 56.2999 737.742 56.7644 737.742 57.3504H736.282C736.282 56.6206 736.371 56.0124 736.548 55.5259C736.736 55.0394 737.007 54.6192 737.36 54.2653C737.725 53.9115 738.162 53.6461 738.671 53.4691C739.18 53.2922 739.727 53.2038 740.313 53.2038C740.888 53.2038 741.408 53.2922 741.872 53.4691C742.348 53.635 742.751 53.8728 743.083 54.1824C743.415 54.492 743.669 54.8624 743.846 55.2937C744.023 55.7139 744.111 56.1783 744.111 56.687C744.111 57.2399 744.023 57.7098 743.846 58.0968C743.669 58.4728 743.431 58.8045 743.133 59.092C742.834 59.3795 742.48 59.6449 742.071 59.8882C741.673 60.1204 741.247 60.3637 740.794 60.618C740.484 60.7839 740.164 60.9719 739.832 61.182C739.5 61.381 739.185 61.6022 738.886 61.8454C738.599 62.0776 738.345 62.332 738.123 62.6084C737.902 62.8849 737.753 63.1779 737.676 63.4875H743.879V64.8145H736ZM749.264 65.0633C748.678 65.0633 748.131 64.9803 747.622 64.8145C747.124 64.6375 746.693 64.3943 746.328 64.0846C745.963 63.775 745.67 63.4046 745.449 62.9733C745.228 62.5421 745.106 62.0611 745.084 61.5303H746.461C746.549 62.238 746.831 62.8019 747.307 63.2221C747.793 63.6313 748.44 63.8358 749.248 63.8358C750.066 63.8358 750.713 63.587 751.188 63.0894C751.675 62.5808 751.918 61.9118 751.918 61.0824C751.918 60.6512 751.846 60.2697 751.702 59.938C751.57 59.6062 751.382 59.3243 751.138 59.092C750.895 58.8598 750.613 58.6829 750.293 58.5613C749.972 58.4396 749.624 58.3788 749.248 58.3788C748.628 58.3788 748.109 58.4894 747.688 58.7105C747.268 58.9317 746.937 59.2137 746.693 59.5565H745.35L746.61 53.4526H752.664V54.6966H747.589L746.843 58.1134H746.876C747.196 57.8038 747.572 57.5661 748.004 57.4002C748.435 57.2343 748.927 57.1514 749.48 57.1514C749.988 57.1514 750.475 57.2399 750.939 57.4168C751.404 57.5937 751.813 57.8536 752.167 58.1964C752.521 58.5281 752.803 58.9428 753.013 59.4404C753.234 59.9269 753.345 60.4853 753.345 61.1156C753.345 61.7238 753.239 62.2712 753.029 62.7577C752.83 63.2442 752.548 63.6589 752.183 64.0017C751.819 64.3445 751.387 64.6099 750.89 64.7979C750.392 64.9748 749.85 65.0633 749.264 65.0633Z" fill="white" />
    <path d="M777.224 59.6228H781.669V60.8502H777.224V59.6228ZM782.647 64.8145C782.68 64.0515 782.824 63.4046 783.078 62.8738C783.344 62.332 783.676 61.862 784.074 61.4639C784.483 61.0659 784.931 60.7175 785.417 60.419C785.915 60.1094 786.412 59.8108 786.91 59.5233C787.286 59.3132 787.618 59.1142 787.905 58.9262C788.204 58.7271 788.458 58.5226 788.668 58.3125C788.878 58.0913 789.039 57.8536 789.149 57.5992C789.26 57.3449 789.315 57.0463 789.315 56.7036C789.315 56.0069 789.094 55.443 788.652 55.0117C788.209 54.5805 787.607 54.3648 786.844 54.3648C786.445 54.3648 786.097 54.4312 785.799 54.5639C785.5 54.6855 785.246 54.8569 785.036 55.0781C784.814 55.3213 784.649 55.6144 784.538 55.9571C784.438 56.2999 784.389 56.7644 784.389 57.3504H782.929C782.929 56.6206 783.018 56.0124 783.194 55.5259C783.382 55.0394 783.653 54.6192 784.007 54.2653C784.372 53.9115 784.809 53.6461 785.318 53.4691C785.826 53.2922 786.374 53.2038 786.96 53.2038C787.535 53.2038 788.054 53.2922 788.519 53.4691C788.994 53.635 789.398 53.8728 789.73 54.1824C790.061 54.492 790.316 54.8624 790.493 55.2937C790.67 55.7139 790.758 56.1783 790.758 56.687C790.758 57.2399 790.67 57.7098 790.493 58.0968C790.316 58.4728 790.078 58.8045 789.779 59.092C789.481 59.3795 789.127 59.6449 788.718 59.8882C788.32 60.1204 787.894 60.3637 787.441 60.618C787.131 60.7839 786.81 60.9719 786.479 61.182C786.147 61.381 785.832 61.6022 785.533 61.8454C785.246 62.0776 784.991 62.332 784.77 62.6084C784.549 62.8849 784.4 63.1779 784.322 63.4875H790.526V64.8145H782.647ZM796.491 65.0633C795.795 65.0633 795.17 64.925 794.617 64.6486C794.075 64.3611 793.616 63.963 793.24 63.4543C792.864 62.9346 792.577 62.3099 792.378 61.58C792.179 60.8502 792.079 60.032 792.079 59.1252C792.079 58.2074 792.184 57.3836 792.395 56.6538C792.605 55.9129 792.903 55.2882 793.29 54.7795C793.677 54.2598 794.142 53.8672 794.684 53.6018C795.225 53.3254 795.834 53.1872 796.508 53.1872C797.183 53.1872 797.791 53.3254 798.333 53.6018C798.874 53.8672 799.333 54.2542 799.709 54.7629C800.096 55.2716 800.389 55.8963 800.588 56.6372C800.798 57.367 800.904 58.1964 800.904 59.1252C800.904 60.032 800.804 60.8502 800.605 61.58C800.417 62.3099 800.135 62.9346 799.759 63.4543C799.383 63.963 798.919 64.3611 798.366 64.6486C797.824 64.925 797.199 65.0633 796.491 65.0633ZM796.508 63.8524C797.514 63.8524 798.255 63.4322 798.731 62.5918C799.217 61.7514 799.46 60.5959 799.46 59.1252C799.46 58.4065 799.4 57.754 799.278 57.168C799.156 56.5819 798.968 56.0843 798.714 55.6752C798.471 55.255 798.167 54.9343 797.802 54.7131C797.437 54.492 797.006 54.3814 796.508 54.3814C795.502 54.3814 794.75 54.8071 794.252 55.6586C793.766 56.499 793.522 57.6545 793.522 59.1252C793.522 59.844 793.583 60.4964 793.705 61.0824C793.827 61.6685 794.009 62.1661 794.252 62.5752C794.507 62.9844 794.822 63.2995 795.198 63.5207C795.574 63.7418 796.01 63.8524 796.508 63.8524Z" fill="white" />
    <path d="M828.133 59.6228H832.578V60.8502H828.133V59.6228ZM834.766 56.5377H832.278V55.6088C832.621 55.5978 832.952 55.5591 833.273 55.4927C833.594 55.4153 833.876 55.2937 834.119 55.1278C834.373 54.9509 834.584 54.7242 834.749 54.4478C834.915 54.1603 835.026 53.8064 835.081 53.3862H836.159V64.8145H834.766V56.5377ZM842.009 65.0633C841.423 65.0633 840.876 64.9803 840.367 64.8145C839.87 64.6375 839.438 64.3943 839.074 64.0846C838.709 63.775 838.416 63.4046 838.194 62.9733C837.973 62.5421 837.852 62.0611 837.83 61.5303H839.206C839.295 62.238 839.577 62.8019 840.052 63.2221C840.539 63.6313 841.186 63.8358 841.993 63.8358C842.811 63.8358 843.458 63.587 843.933 63.0894C844.42 62.5808 844.663 61.9118 844.663 61.0824C844.663 60.6512 844.591 60.2697 844.448 59.938C844.315 59.6062 844.127 59.3243 843.884 59.092C843.64 58.8598 843.358 58.6829 843.038 58.5613C842.717 58.4396 842.369 58.3788 841.993 58.3788C841.374 58.3788 840.854 58.4894 840.434 58.7105C840.013 58.9317 839.682 59.2137 839.438 59.5565H838.095L839.356 53.4526H845.41V54.6966H840.334L839.588 58.1134H839.621C839.942 57.8038 840.318 57.5661 840.749 57.4002C841.18 57.2343 841.672 57.1514 842.225 57.1514C842.734 57.1514 843.22 57.2399 843.685 57.4168C844.149 57.5937 844.558 57.8536 844.912 58.1964C845.266 58.5281 845.548 58.9428 845.758 59.4404C845.979 59.9269 846.09 60.4853 846.09 61.1156C846.09 61.7238 845.985 62.2712 845.775 62.7577C845.576 63.2442 845.294 63.6589 844.929 64.0017C844.564 64.3445 844.133 64.6099 843.635 64.7979C843.137 64.9748 842.595 65.0633 842.009 65.0633Z" fill="white" />
    <path d="M874.28 59.6228H878.725V60.8502H874.28V59.6228ZM880.913 56.5377H878.425V55.6088C878.768 55.5978 879.099 55.5591 879.42 55.4927C879.741 55.4153 880.023 55.2937 880.266 55.1278C880.52 54.9509 880.73 54.7242 880.896 54.4478C881.062 54.1603 881.173 53.8064 881.228 53.3862H882.306V64.8145H880.913V56.5377ZM888.737 65.0633C888.04 65.0633 887.416 64.925 886.863 64.6486C886.321 64.3611 885.862 63.963 885.486 63.4543C885.11 62.9346 884.822 62.3099 884.623 61.58C884.424 60.8502 884.325 60.032 884.325 59.1252C884.325 58.2074 884.43 57.3836 884.64 56.6538C884.85 55.9129 885.149 55.2882 885.536 54.7795C885.923 54.2598 886.387 53.8672 886.929 53.6018C887.471 53.3254 888.079 53.1872 888.754 53.1872C889.428 53.1872 890.036 53.3254 890.578 53.6018C891.12 53.8672 891.579 54.2542 891.955 54.7629C892.342 55.2716 892.635 55.8963 892.834 56.6372C893.044 57.367 893.149 58.1964 893.149 59.1252C893.149 60.032 893.049 60.8502 892.85 61.58C892.662 62.3099 892.38 62.9346 892.005 63.4543C891.629 63.963 891.164 64.3611 890.611 64.6486C890.069 64.925 889.445 65.0633 888.737 65.0633ZM888.754 63.8524C889.76 63.8524 890.501 63.4322 890.976 62.5918C891.463 61.7514 891.706 60.5959 891.706 59.1252C891.706 58.4065 891.645 57.754 891.524 57.168C891.402 56.5819 891.214 56.0843 890.96 55.6752C890.716 55.255 890.412 54.9343 890.047 54.7131C889.682 54.492 889.251 54.3814 888.754 54.3814C887.747 54.3814 886.995 54.8071 886.498 55.6586C886.011 56.499 885.768 57.6545 885.768 59.1252C885.768 59.844 885.829 60.4964 885.95 61.0824C886.072 61.6685 886.254 62.1661 886.498 62.5752C886.752 62.9844 887.067 63.2995 887.443 63.5207C887.819 63.7418 888.256 63.8524 888.754 63.8524Z" fill="white" />
    <path d="M924.313 59.6228H928.758V60.8502H924.313V59.6228ZM933.946 65.0633C933.36 65.0633 932.812 64.9803 932.304 64.8145C931.806 64.6375 931.375 64.3943 931.01 64.0846C930.645 63.775 930.352 63.4046 930.131 62.9733C929.91 62.5421 929.788 62.0611 929.766 61.5303H931.143C931.231 62.238 931.513 62.8019 931.989 63.2221C932.475 63.6313 933.122 63.8358 933.929 63.8358C934.748 63.8358 935.394 63.587 935.87 63.0894C936.356 62.5808 936.6 61.9118 936.6 61.0824C936.6 60.6512 936.528 60.2697 936.384 59.938C936.251 59.6062 936.063 59.3243 935.82 59.092C935.577 58.8598 935.295 58.6829 934.974 58.5613C934.654 58.4396 934.305 58.3788 933.929 58.3788C933.31 58.3788 932.79 58.4894 932.37 58.7105C931.95 58.9317 931.618 59.2137 931.375 59.5565H930.031L931.292 53.4526H937.346V54.6966H932.271L931.524 58.1134H931.557C931.878 57.8038 932.254 57.5661 932.685 57.4002C933.117 57.2343 933.609 57.1514 934.161 57.1514C934.67 57.1514 935.157 57.2399 935.621 57.4168C936.086 57.5937 936.495 57.8536 936.849 58.1964C937.202 58.5281 937.484 58.9428 937.694 59.4404C937.916 59.9269 938.026 60.4853 938.026 61.1156C938.026 61.7238 937.921 62.2712 937.711 62.7577C937.512 63.2442 937.23 63.6589 936.865 64.0017C936.5 64.3445 936.069 64.6099 935.571 64.7979C935.074 64.9748 934.532 65.0633 933.946 65.0633Z" fill="white" />
    <path d="M979.469 65.0633C978.773 65.0633 978.148 64.925 977.595 64.6486C977.053 64.3611 976.594 63.963 976.218 63.4543C975.842 62.9346 975.555 62.3099 975.356 61.58C975.157 60.8502 975.057 60.032 975.057 59.1252C975.057 58.2074 975.162 57.3836 975.372 56.6538C975.582 55.9129 975.881 55.2882 976.268 54.7795C976.655 54.2598 977.119 53.8672 977.661 53.6018C978.203 53.3254 978.811 53.1872 979.486 53.1872C980.16 53.1872 980.769 53.3254 981.31 53.6018C981.852 53.8672 982.311 54.2542 982.687 54.7629C983.074 55.2716 983.367 55.8963 983.566 56.6372C983.776 57.367 983.881 58.1964 983.881 59.1252C983.881 60.032 983.782 60.8502 983.583 61.58C983.395 62.3099 983.113 62.9346 982.737 63.4543C982.361 63.963 981.896 64.3611 981.344 64.6486C980.802 64.925 980.177 65.0633 979.469 65.0633ZM979.486 63.8524C980.492 63.8524 981.233 63.4322 981.708 62.5918C982.195 61.7514 982.438 60.5959 982.438 59.1252C982.438 58.4065 982.377 57.754 982.256 57.168C982.134 56.5819 981.946 56.0843 981.692 55.6752C981.449 55.255 981.145 54.9343 980.78 54.7131C980.415 54.492 979.983 54.3814 979.486 54.3814C978.48 54.3814 977.728 54.8071 977.23 55.6586C976.743 56.499 976.5 57.6545 976.5 59.1252C976.5 59.844 976.561 60.4964 976.683 61.0824C976.804 61.6685 976.987 62.1661 977.23 62.5752C977.484 62.9844 977.8 63.2995 978.175 63.5207C978.551 63.7418 978.988 63.8524 979.486 63.8524Z" fill="white" />
  </g>
  <circle cx="512.504" cy="135.165" r="3.39868" fill="#1DEBF9" />
  <rect x="0.767578" y="0.474854" width="1023.47" height="162.68" fill="url(#paint0_linear_275_233)" />
  <defs>
    <linearGradient id="paint0_linear_275_233" x1="0.767578" y1="163.155" x2="1024.24" y2="163.155" gradientUnits="userSpaceOnUse">
      <stop offset="0.0514962" stop-color="#030014" />
      <stop offset="0.5" stop-color="#030014" stop-opacity="0" />
      <stop offset="0.936929" stop-color="#030014" />
    </linearGradient>
  </defs>
  </svg>