<svg width="158" height="29" viewBox="0 0 158 29" fill="none" xmlns="http://www.w3.org/2000/svg">
<g clip-path="url(#clip0_275_219)">
<path fill-rule="evenodd" clip-rule="evenodd" d="M14.1229 0.149694C1.59215 2.0794 -3.48262 16.0269 5.18637 24.7108C15.3754 34.9173 32.6631 25.217 29.3602 11.1468C27.8095 4.54068 20.3887 -0.815162 14.1229 0.149694ZM13.0338 6.44914C13.033 6.56162 12.9196 7.0823 12.782 7.60653C12.6442 8.13076 12.3917 9.26419 12.2204 10.1256L11.9094 11.6914H10.4044C9.16391 11.6914 8.92739 11.6182 9.05929 11.2739C9.14734 11.0443 9.36675 10.055 9.54701 9.07518C9.79056 7.75114 10.0456 7.1591 10.54 6.7694C11.1795 6.26559 13.0371 6.02704 13.0338 6.44914ZM17.8302 7.27674C19.0198 8.8453 17.3677 11.6914 15.2677 11.6914C14.784 11.6914 15.1505 8.67106 15.8872 6.5883C16.0408 6.15395 17.3229 6.60819 17.8302 7.27674ZM23.6419 6.44914C23.6654 7.6177 21.3076 11.6914 20.6078 11.6914C19.6965 11.6914 19.7033 11.748 20.2848 9.09698C20.6572 7.39984 20.863 6.96357 21.4402 6.64931C22.1899 6.24109 23.6351 6.10956 23.6419 6.44914ZM10.9699 13.9144C11.1964 14.2385 11.3184 14.6061 11.2409 14.7314C11.1637 14.8567 11.6582 14.9593 12.3398 14.9593C13.0213 14.9593 13.5792 15.0819 13.5792 15.2317C13.5792 15.3814 13.0333 15.504 12.3664 15.504C11.0397 15.504 10.5343 16.3912 10.5343 18.7194C10.5343 19.221 10.3639 19.959 10.1554 20.359C9.94714 20.7593 9.77587 21.2912 9.77477 21.5409C9.77094 22.6221 9.46895 22.8568 8.08193 22.8568H6.72101L6.91049 21.5913C7.01462 20.8953 7.19975 20.1295 7.32181 19.8893C7.44388 19.6491 7.68338 18.5206 7.85411 17.3809C8.47313 13.2478 9.61522 11.9774 10.9699 13.9144ZM16.6862 13.7532C16.9211 13.9888 17.1133 14.3564 17.1133 14.5702C17.1133 14.8038 17.3852 14.9593 17.7929 14.9593C18.1667 14.9593 18.4726 15.0819 18.4726 15.2317C18.4726 15.3814 18.12 15.504 17.6893 15.504C16.8311 15.504 16.2977 16.7964 16.2977 18.8765C16.2977 19.4005 16.1754 19.9047 16.0258 19.9973C15.8764 20.09 15.754 20.4514 15.754 20.8002C15.754 21.8348 14.9241 22.6017 13.6137 22.7779L12.4306 22.9369L12.6285 21.7394C12.7375 21.081 12.9446 20.3171 13.089 20.0423C13.2334 19.7672 13.3853 19.0932 13.4269 18.5445C13.4682 17.9955 13.7154 16.5968 13.9758 15.4359L14.4494 13.3254H15.3541C15.8516 13.3254 16.4511 13.5179 16.6862 13.7532ZM20.9193 14.1423C20.9193 14.9424 20.9478 14.9593 22.2946 14.9593C23.1423 14.9593 23.6055 15.0639 23.502 15.2317C23.4096 15.3814 22.7824 15.504 22.1084 15.504C21.0674 15.504 20.9044 15.5759 21.0267 15.9806C21.2622 16.7605 21.2966 19.4698 21.0753 19.8286C20.9628 20.0112 20.7285 20.7367 20.555 21.4407L20.2397 22.7207L18.8124 22.8029C18.0273 22.8483 17.386 22.7871 17.3868 22.6668C17.3892 22.2827 17.9455 20.289 18.2073 19.725C18.3465 19.4255 18.4329 18.9966 18.3994 18.7719C18.1572 17.1434 19.3757 13.3254 20.1375 13.3254C20.825 13.3254 20.9193 13.424 20.9193 14.1423ZM7.73423 15.2317C7.64179 15.3814 7.32888 15.504 7.03854 15.504C6.7482 15.504 6.51086 15.3814 6.51086 15.2317C6.51086 15.0819 6.82404 14.9593 7.20655 14.9593C7.60101 14.9593 7.82965 15.0772 7.73423 15.2317Z" fill="white" fill-opacity="0.4"/>
<path fill-rule="evenodd" clip-rule="evenodd" d="M46.5464 4.55721C45.4428 5.26896 45.1204 6.83995 45.8717 7.84555L46.026 8.05196L47.8393 8.06555C49.2332 8.07602 49.6739 8.06407 49.7444 8.0139C49.8284 7.95421 50.569 4.85931 50.569 4.56784C50.569 4.37943 50.4035 4.36214 48.601 4.36214H46.849L46.5464 4.55721ZM53.6313 4.44683C53.5892 4.49343 53.3646 5.38173 53.1323 6.42076L52.7099 8.31004L49.3434 8.33582C45.689 8.36379 45.7297 8.36036 45.9154 8.6325C45.9727 8.71665 46.2039 8.72376 49.2775 8.73619C52.3732 8.74869 52.5779 8.75502 52.5762 8.83941C52.5752 8.88879 52.4182 9.62599 52.2274 10.4774L51.8804 12.0256L50.4155 12.0394C49.154 12.0512 48.9506 12.0426 48.9506 11.9769C48.9506 11.9351 49.0885 11.2918 49.257 10.5476C49.6505 8.8101 49.865 9.00669 47.5758 9.00669H45.7721L45.6941 9.1228C45.6511 9.18672 45.2624 10.8297 44.8302 12.7739C44.3978 14.7182 43.6413 18.1131 43.1489 20.318C42.1463 24.8075 42.2244 24.4025 42.3412 24.5106C42.4582 24.6187 45.9096 24.6341 46.0655 24.5272C46.1339 24.4802 46.2575 24.0204 46.5199 22.8371C46.7181 21.943 47.122 20.12 47.4175 18.786C47.7131 17.452 47.9925 16.2037 48.0386 16.0122L48.1223 15.6638H49.2879H50.4534L50.649 15.8226C50.9015 16.0276 50.9422 16.2329 50.8305 16.7388C50.7824 16.9565 50.3774 18.7699 49.9304 20.7687C48.946 25.17 48.7693 24.5917 51.0991 24.5917C53.2991 24.5917 52.9089 25.096 53.7946 21.1083C54.1981 19.2917 54.981 15.7769 55.5343 13.2976C56.0877 10.8182 56.5404 8.78041 56.5404 8.76916C56.5404 8.75791 57.2059 8.74869 58.0193 8.74869C58.8327 8.74869 59.4982 8.75588 59.4982 8.76471C59.4982 8.77354 59.385 9.28564 59.2467 9.90283C58.9134 11.3901 58.7034 11.2259 60.9372 11.225C63.1279 11.224 62.8499 11.3818 63.1703 9.95791L63.4365 8.77447L68.1573 8.76127C72.0734 8.75033 72.8886 8.76002 72.9406 8.818C73.8096 9.78625 71.9373 11.9729 70.2575 11.9518C69.5084 11.9422 69.5629 12.1707 69.9262 10.5624C70.3167 8.8337 70.5326 9.03553 68.2754 9.01888C66.042 9.0024 66.5052 8.26722 65.2734 13.784C64.7034 16.3364 63.9341 19.7823 63.5638 21.4413L62.8904 24.4579L63.0183 24.5536C63.2287 24.7112 69.3206 24.6623 70.1153 24.4966C75.5676 23.36 78.142 17.7465 74.9861 13.8757C74.9467 13.8275 74.9881 13.7543 75.1343 13.6139C76.2021 12.5878 76.8897 11.0433 76.9496 9.53567L76.981 8.74869H78.564C79.793 8.74869 80.1469 8.76307 80.1477 8.81315C80.1477 8.8487 80.0414 9.35971 79.9109 9.94893C79.639 11.1761 79.6414 11.1907 80.0633 11.216C81.4213 11.2974 83.1731 10.2657 83.8802 8.96802L83.9998 8.74869H88.7145C91.3078 8.74869 93.4291 8.75486 93.4291 8.76244C93.4291 8.77002 93.0682 9.50738 92.6267 10.4009L91.8242 12.0256L91.064 12.04C90.3662 12.0532 90.3045 12.0469 90.3061 11.9626C90.3076 11.9121 90.4428 11.2786 90.6077 10.5549C90.8765 9.37448 90.8991 9.22696 90.8272 9.1228L90.7483 9.00669L88.9496 9.00747C87.9604 9.00794 87.1166 9.02865 87.0736 9.05342C87.0236 9.08264 86.6939 10.4538 86.1391 12.936C85.668 15.0466 84.9054 18.4602 84.4444 20.522C83.5341 24.5975 83.5591 24.461 83.7154 24.5383C83.881 24.6206 87.2986 24.6103 87.4151 24.5272C87.4807 24.4804 87.7675 23.2814 88.4621 20.1536C88.9887 17.7836 89.4317 15.8038 89.4466 15.7542C89.4888 15.6173 90.7843 15.6173 90.8265 15.7542C90.8421 15.8038 91.1109 17.7604 91.425 20.102C91.7781 22.738 92.0251 24.4037 92.0719 24.4756L92.1485 24.5917H94.0894C95.663 24.5917 96.0514 24.5781 96.1373 24.5197C96.2412 24.4494 96.2272 24.3236 95.5662 19.4649L94.8887 14.4821L96.2936 11.6283L97.6985 8.77447L99.2815 8.76072L100.865 8.74697L100.833 8.86394C100.199 11.2239 100.201 11.2318 101.484 11.2139L102.491 11.2L103.087 9.98721L103.682 8.77447L105.526 8.76088L107.37 8.74728L107.39 9.44034C107.408 10.0876 107.44 10.2594 107.529 10.1772C107.549 10.1588 107.583 9.9401 107.604 9.69132C107.644 9.23993 107.644 9.24047 107.652 9.92267C107.659 10.4928 107.674 10.6064 107.744 10.6064C107.815 10.6064 107.828 10.4861 107.828 9.83235C107.828 9.21156 107.843 9.05826 107.905 9.05826C107.986 9.05826 108.049 9.31087 108.051 9.63889C108.051 9.74531 108.076 9.83235 108.107 9.83235C108.142 9.83235 108.162 10.1936 108.162 10.8129C108.162 11.4022 108.184 11.7934 108.216 11.7934C108.245 11.7934 108.276 11.96 108.286 12.1634C108.327 13.0954 108.44 12.5855 108.455 11.3974C108.473 9.89673 108.625 9.60076 108.652 11.0103C108.676 12.2147 108.795 12.0639 108.833 10.7829C108.852 10.1037 108.869 9.92307 108.888 10.1895C108.927 10.7278 109.055 10.7574 109.055 10.228C109.055 9.98753 109.079 9.83368 109.118 9.82165C109.152 9.81102 109.2 9.71038 109.223 9.59802C109.259 9.42503 109.267 9.45464 109.273 9.79063C109.276 10.0089 109.304 10.2019 109.334 10.2194C109.366 10.2376 109.391 10.4952 109.391 10.8159C109.391 11.2834 109.405 11.3805 109.474 11.3805C109.543 11.3805 109.558 11.2859 109.558 10.838C109.558 10.5396 109.583 10.2551 109.614 10.2058C109.645 10.1565 109.692 9.96526 109.719 9.78078C109.756 9.5209 109.769 9.71093 109.774 10.6236C109.783 12.0621 109.899 12.3037 109.951 10.9893C109.967 10.5659 109.986 10.3885 109.992 10.5952C110.001 10.8744 110.026 10.9786 110.088 11.0006C110.14 11.0191 110.172 11.0979 110.172 11.2097C110.172 11.3303 110.195 11.3821 110.242 11.3677C110.292 11.352 110.319 11.085 110.341 10.37C110.357 9.83305 110.376 9.47941 110.383 9.58419C110.389 9.68897 110.42 9.78906 110.451 9.80657C110.485 9.82626 110.506 10.2801 110.506 10.9966C110.506 11.9915 110.518 12.1547 110.59 12.1547C110.66 12.1547 110.674 12.0556 110.674 11.5741C110.674 11.2548 110.693 10.7265 110.716 10.4001L110.758 9.80657L110.785 10.4001C110.826 11.2644 110.919 11.1514 110.955 10.1936C110.972 9.75367 110.991 9.47941 110.997 9.58419C111.003 9.68897 111.034 9.78906 111.064 9.80657C111.096 9.82415 111.121 9.98636 111.121 10.1672C111.121 10.3905 111.147 10.5207 111.204 10.5733C111.263 10.6275 111.288 10.7601 111.288 11.0156C111.288 11.3056 111.305 11.3805 111.371 11.3805C111.442 11.3805 111.455 11.2605 111.455 10.6095C111.455 10.1511 111.478 9.82555 111.511 9.80657C111.542 9.78906 111.567 9.65998 111.567 9.51973C111.567 9.3794 111.592 9.2647 111.623 9.2647C111.653 9.2647 111.682 9.15445 111.685 9.01959L111.692 8.77447L111.74 9.07889C111.814 9.54723 111.957 9.54864 111.957 9.08108C111.957 8.86581 111.977 8.80026 112.041 8.80026C112.093 8.80026 112.125 8.8487 112.125 8.92621C112.125 8.99552 112.146 9.06444 112.172 9.07936C112.199 9.09428 112.236 9.27368 112.254 9.47793C112.272 9.68217 112.311 9.8629 112.34 9.8797C112.37 9.89642 112.403 9.97971 112.413 10.0647C112.452 10.3859 112.544 10.176 112.56 9.72945C112.578 9.20547 112.738 9.01005 112.74 9.50981C112.742 10.041 112.91 10.0014 112.965 9.45714C112.985 9.25196 113.005 9.1596 113.01 9.2518C113.021 9.47551 113.186 9.48762 113.186 9.2647C113.186 9.17953 113.211 9.10991 113.241 9.10991C113.272 9.10991 113.297 9.07366 113.297 9.02943C113.297 8.98521 113.322 8.96333 113.353 8.98091C113.383 8.99841 113.408 9.06944 113.408 9.13874C113.408 9.20805 113.433 9.2647 113.462 9.2647C113.49 9.2647 113.522 9.37502 113.531 9.50981C113.54 9.64467 113.573 9.755 113.604 9.755C113.634 9.755 113.667 9.64467 113.676 9.50981C113.686 9.37502 113.718 9.2647 113.747 9.2647C113.776 9.2647 113.803 9.18922 113.807 9.09702C113.811 9.00474 113.836 9.13616 113.862 9.38901C113.888 9.64186 113.921 9.85899 113.934 9.8715C114.011 9.94197 114.08 9.78953 114.087 9.53262C114.093 9.34994 114.105 9.30236 114.119 9.40667C114.131 9.49887 114.165 9.57435 114.194 9.57435C114.222 9.57435 114.246 9.6092 114.246 9.65178C114.246 9.69436 114.283 9.72913 114.33 9.72913C114.389 9.72913 114.413 9.67303 114.414 9.53567C114.414 9.42925 114.43 9.25462 114.449 9.14765L114.484 8.95309L114.558 9.08506C114.598 9.15765 114.639 9.40768 114.648 9.64084C114.67 10.2203 114.769 10.1792 114.807 9.57435C114.824 9.3047 114.843 9.1814 114.849 9.3004C114.869 9.70905 115.009 9.66834 115.077 9.23368C115.103 9.06631 115.128 8.96989 115.132 9.01959C115.135 9.06928 115.163 9.10991 115.195 9.10991C115.225 9.10991 115.25 9.17953 115.25 9.2647C115.25 9.34986 115.272 9.41956 115.299 9.41956C115.326 9.41956 115.363 9.48918 115.381 9.57435C115.457 9.924 115.549 9.7364 115.617 9.09702L115.654 8.74869H119.712H123.771L123.833 8.87558C124.454 10.1353 122.699 11.9931 120.883 11.9986L120.461 11.9998L120.755 10.6968C121.071 9.30017 121.091 9.16421 120.988 9.06858C120.79 8.88605 117.148 9.00341 117.148 9.19242C117.148 9.20539 116.394 12.5897 115.473 16.7132C113.758 24.398 113.752 24.4241 113.866 24.5298C113.948 24.6051 117.464 24.6177 117.591 24.5431C117.645 24.5113 117.99 23.0691 118.655 20.0929L119.64 15.6897H120.276H120.912L121.502 20.0583C121.883 22.8821 122.118 24.4561 122.166 24.5093C122.269 24.6246 126.048 24.6349 126.217 24.5204C126.319 24.4512 126.303 24.3067 125.651 19.4821L124.98 14.5151L125.66 13.8896C127.151 12.5192 127.98 10.6686 127.822 9.06365L127.792 8.74869H132.85C135.632 8.74869 137.909 8.76658 137.909 8.78846C137.909 8.82768 137.734 9.61099 136.257 16.2316C135.244 20.766 135.177 20.8761 133.412 20.8761C132.158 20.8761 132.152 21.373 133.471 15.474C134.993 8.66446 134.875 9.22664 134.804 9.12257C134.683 8.94512 131.039 8.96388 130.965 9.14234C130.93 9.22688 128.749 18.9243 128.61 19.6117C128.005 22.6109 131.217 25.3742 134.183 24.4065C134.339 24.3555 134.425 24.348 134.439 24.3842C134.511 24.586 134.565 24.5917 136.395 24.5917C137.723 24.5917 138.19 24.5756 138.261 24.5272C138.358 24.462 138.477 23.9431 141.01 12.5675C141.455 10.5665 141.832 8.88863 141.849 8.83894C141.876 8.75432 142.082 8.74869 145.16 8.74869C148.753 8.74869 148.665 8.75611 148.521 8.46326L148.458 8.33582H145.22C142.667 8.33582 141.982 8.32215 141.982 8.27128C141.982 8.23581 142.158 7.42125 142.373 6.46117C142.787 4.60918 142.801 4.52093 142.697 4.42407C142.504 4.24603 138.857 4.35801 138.857 4.54199C138.857 4.57197 138.079 8.07282 138.042 8.20823L138.008 8.33582H132.863H127.719L127.618 7.98749C127.188 6.49249 125.872 5.17128 124.291 4.64716C123.492 4.38206 123.243 4.36214 120.727 4.36214H118.402L118.115 4.54064C117.003 5.23346 116.664 6.83717 117.418 7.84555L117.571 8.05196L120.276 8.07774C123.01 8.10392 123.343 8.12923 123.343 8.31137C123.343 8.32481 121.612 8.33582 119.496 8.33582H115.65L115.613 8.18096C115.593 8.09587 115.555 8.02617 115.528 8.02617C115.502 8.02617 115.472 7.93288 115.463 7.81882C115.44 7.54716 115.339 7.52993 115.316 7.79395C115.306 7.90748 115.275 8.02242 115.246 8.04938C115.218 8.07641 115.192 8.15767 115.189 8.23003C115.184 8.34903 115.18 8.34559 115.132 8.19385C115.103 8.10165 115.055 8.02617 115.025 8.02617C114.995 8.02617 114.971 7.97273 114.971 7.90748C114.971 7.84219 114.948 7.76675 114.919 7.73976C114.891 7.71282 114.859 7.59784 114.849 7.4843C114.84 7.37077 114.806 7.27788 114.776 7.27788C114.745 7.27788 114.712 7.37077 114.702 7.4843C114.693 7.59784 114.661 7.71282 114.633 7.73976C114.604 7.76675 114.58 7.89444 114.58 8.02359C114.579 8.19416 114.564 8.23722 114.525 8.18096C114.495 8.13837 114.47 8.05133 114.469 7.98749C114.469 7.92358 114.445 7.87139 114.416 7.87139C114.387 7.87139 114.355 7.7378 114.346 7.57462C114.325 7.19593 114.228 7.2109 114.185 7.59944C114.167 7.76318 114.148 7.8391 114.141 7.76814C114.136 7.69718 114.094 7.59402 114.048 7.53896C114.004 7.48384 113.966 7.36195 113.966 7.26802C113.966 7.08931 113.891 7.03895 113.833 7.1789C113.815 7.2238 113.796 7.43859 113.793 7.65626C113.789 7.87389 113.776 8.00554 113.762 7.94874C113.748 7.89201 113.715 7.7991 113.687 7.74234C113.66 7.68557 113.63 7.59459 113.621 7.54019C113.58 7.30095 113.465 7.40277 113.465 7.67783C113.465 7.83156 113.446 7.97452 113.422 7.99547C113.4 8.01641 113.351 8.10743 113.315 8.1976C113.253 8.35278 113.25 8.35457 113.245 8.23003C113.243 8.15767 113.218 8.07641 113.19 8.04938C113.162 8.02242 113.13 7.94718 113.12 7.88217C113.093 7.71416 112.993 7.71555 112.972 7.88428C112.943 8.11501 112.85 8.04602 112.85 7.79395C112.85 7.5596 112.769 7.48534 112.695 7.65203C112.672 7.70549 112.643 7.58432 112.627 7.35529C112.6 6.97656 112.505 6.82865 112.47 7.11016C112.461 7.18824 112.429 7.25208 112.4 7.25208C112.372 7.25208 112.348 7.31984 112.348 7.40261C112.348 7.48539 112.319 7.56208 112.284 7.57302C112.248 7.58396 112.204 7.69124 112.186 7.81144C112.146 8.06993 112.054 8.11587 112.014 7.89717C111.972 7.67592 111.878 7.72758 111.85 7.98656L111.828 8.20682L111.765 7.89717C111.698 7.56012 111.617 7.4988 111.56 7.74234C111.532 7.86529 111.523 7.84142 111.518 7.62622C111.514 7.47724 111.487 7.35529 111.457 7.35529C111.426 7.35529 111.396 7.10567 111.387 6.7789C111.366 5.98366 111.258 5.96466 111.204 6.74655C111.182 7.06718 111.142 7.35369 111.117 7.38326C111.092 7.41283 111.061 7.59861 111.05 7.79611L111.031 8.15517L111.02 7.75524C111.014 7.52977 110.985 7.35529 110.953 7.35529C110.921 7.35529 110.897 7.20151 110.897 6.9971C110.897 6.80006 110.874 6.62595 110.847 6.61015C110.819 6.59436 110.778 6.31331 110.756 5.98567C110.703 5.19393 110.596 5.20518 110.574 6.00482C110.566 6.33158 110.535 6.5812 110.505 6.5812C110.473 6.5812 110.446 6.90323 110.439 7.36819C110.429 8.00672 110.424 8.05297 110.41 7.61332C110.402 7.3153 110.371 7.02502 110.342 6.96825C110.314 6.91148 110.28 6.54476 110.267 6.15328C110.252 5.76185 110.226 5.42708 110.206 5.40933C110.124 5.33275 110.095 5.49056 110.059 6.20727C110.035 6.6967 110.019 6.8255 110.013 6.5683C110.009 6.3483 109.98 6.16835 109.95 6.16835C109.92 6.16835 109.889 5.91723 109.881 5.58778C109.855 4.65278 109.758 4.9068 109.713 6.02587C109.667 7.16543 109.635 7.49468 109.623 6.95534C109.617 6.74959 109.59 6.5812 109.56 6.5812C109.531 6.5812 109.499 6.40688 109.491 6.19379C109.461 5.49866 109.363 5.76299 109.347 6.5811C109.338 7.03926 109.309 7.35529 109.277 7.35529C109.248 7.35529 109.22 7.53514 109.215 7.75524L109.207 8.15517L109.152 7.75524C109.123 7.53529 109.076 7.35529 109.049 7.35529C109.022 7.35529 109 7.18112 109 6.96825C109 6.39258 108.837 6.40429 108.821 6.98115C108.812 7.33434 108.806 7.3122 108.78 6.79176C108.748 6.18765 108.618 5.88751 108.602 6.3834L108.595 6.60701L108.551 6.37478C108.526 6.24705 108.504 5.79808 108.501 5.37708C108.497 4.54023 108.375 4.27101 108.341 5.02425C108.333 5.22773 108.301 5.39426 108.272 5.39426C108.242 5.39426 108.219 5.56843 108.219 5.78131C108.219 5.9962 108.194 6.16835 108.165 6.16835C108.133 6.16835 108.104 6.41921 108.094 6.7483C108.075 7.49044 107.883 7.69279 107.883 6.97202C107.883 6.26393 107.719 6.43825 107.704 7.16177L107.693 7.74234L107.662 6.97243C107.631 6.16267 107.493 5.76882 107.493 6.488C107.493 6.69313 107.462 6.85683 107.411 6.92443C107.352 7.00215 107.325 7.2126 107.313 7.67133L107.297 8.31004L105.61 8.32371C104.681 8.33113 103.921 8.32324 103.921 8.30605C103.921 8.28879 104.323 7.45531 104.814 6.45378C105.949 4.14029 105.971 4.36214 104.597 4.36214C102.864 4.36214 102.122 4.68824 101.633 5.66473C101.505 5.92163 100.964 8.04883 100.964 8.29707C100.964 8.3184 100.282 8.33582 99.4503 8.33582C98.0352 8.33582 97.9383 8.32988 97.9649 8.2455C97.9813 8.1958 98.3861 7.36081 98.865 6.3899C99.8097 4.475 99.7753 4.56067 99.6479 4.44322C99.5534 4.35605 95.7685 4.31725 95.6248 4.40193C95.5888 4.42299 95.1317 5.31086 94.609 6.37508L93.6573 8.31004L88.9168 8.32324L84.1763 8.33637L84.2623 8.09102C84.8616 6.39398 83.3231 4.37463 81.4236 4.36302C81.1759 4.36152 81.1369 4.47211 80.7009 6.42035L80.2782 8.31004L78.5776 8.32363L76.8773 8.33723L76.7502 7.93655C76.2949 6.50059 75.0739 5.24729 73.6 4.70305C72.7508 4.38945 72.479 4.36447 69.9034 4.36328L67.5564 4.36214L67.3075 4.50809C66.1229 5.20275 65.7666 7.08745 66.6546 7.96148L66.7727 8.07774L69.3998 8.07891C72.0031 8.08009 72.0293 8.0811 72.2782 8.19502L72.5293 8.31004L68.0697 8.32324C65.6169 8.33051 63.5968 8.32418 63.5806 8.30926C63.5477 8.27878 63.5838 8.10157 64.0511 5.99676C64.3744 4.54054 64.3791 4.50773 64.2731 4.43568C64.1202 4.33195 60.6045 4.32617 60.5117 4.42954C60.465 4.48166 59.6098 8.15306 59.6098 8.30183C59.6098 8.32051 58.9443 8.33582 58.1309 8.33582C57.3175 8.33582 56.6528 8.3184 56.6538 8.29707C56.6547 8.27581 56.8408 7.43399 57.0673 6.42638C57.4386 4.77447 57.4712 4.58296 57.3991 4.47825L57.3191 4.36214H55.5135C53.9077 4.36214 53.6994 4.37154 53.6313 4.44683ZM87.9573 4.51025C86.7853 5.20967 86.4352 6.84243 87.2369 7.86592L87.4026 8.07774H89.2052C91.1898 8.07774 91.9227 7.13013 91.9227 4.56408C91.9227 4.3799 91.75 4.36214 89.956 4.36214H88.205L87.9573 4.51025ZM131.879 4.53662C130.822 5.25426 130.466 6.50849 131.016 7.58303C131.288 8.11462 131.126 8.07774 133.191 8.07774C135.043 8.07774 135.174 8.06422 135.174 7.87365C135.174 7.8506 135.337 7.1033 135.536 6.21304C135.954 4.3512 135.923 4.54643 135.811 4.44322C135.736 4.37283 135.487 4.36229 133.928 4.36343L132.132 4.36472L131.879 4.53662ZM145.666 4.53373C144.573 5.2861 144.248 6.55334 144.86 7.6721C145.102 8.11462 144.792 8.07774 148.28 8.07774C152.203 8.07774 151.896 7.93569 151.531 9.58052C151.409 10.1306 150.616 13.6754 149.771 17.4577C148.925 21.24 148.233 24.356 148.233 24.3821C148.233 24.4082 148.272 24.466 148.32 24.5106C148.437 24.6187 151.888 24.634 152.046 24.5272C152.118 24.4777 152.505 22.8317 153.702 17.4701C154.561 13.6241 155.333 10.1988 155.417 9.85821C156.033 7.3717 154.765 5.1993 152.297 4.50829C151.9 4.39724 151.799 4.39331 148.902 4.37731L145.917 4.36086L145.666 4.53373ZM144.843 9.04053C144.748 9.07616 144.76 9.0267 143.879 12.9803C143.445 14.9246 142.704 18.2523 142.229 20.3752C141.303 24.5288 141.315 24.4587 141.476 24.5383C141.592 24.5956 144.974 24.6162 145.13 24.5606C145.248 24.5189 145.223 24.617 146.079 20.7729C146.493 18.9137 147.235 15.588 147.728 13.3824C148.657 9.22289 148.667 9.17062 148.556 9.06858C148.49 9.00677 145.004 8.98044 144.843 9.04053ZM58.6093 13.0018C58.5697 13.0459 58.3285 14.0171 58.0733 15.1599C57.8183 16.3028 57.256 18.8214 56.8239 20.7566C55.9673 24.5929 55.9908 24.4615 56.1461 24.5383C56.3122 24.6206 59.7297 24.6103 59.8469 24.5272C59.9121 24.4811 60.075 23.8457 60.4194 22.2953C60.6842 21.1031 61.1755 18.9005 61.511 17.4004C62.2987 13.8795 62.279 13.5986 61.2066 13.0681C60.9 12.9164 58.7355 12.8611 58.6093 13.0018ZM79.2718 12.9904C79.2405 13.0275 79.0233 13.917 78.7903 14.9672C78.5571 16.0174 77.9882 18.5698 77.5262 20.6393C76.5098 25.1921 76.3351 24.5917 78.6755 24.5917H80.479L80.5587 24.4756C80.6274 24.3751 81.201 21.8665 82.4964 16.0002C82.9379 14.0016 82.8285 13.5048 81.8495 13.0567C81.5651 12.9266 79.3734 12.8703 79.2718 12.9904ZM99.9589 13.006C99.9206 13.0485 99.6909 13.9716 99.4487 15.0573C97.1562 25.3132 97.332 24.4555 97.5 24.5383C97.6657 24.6206 101.083 24.6103 101.2 24.5272C101.265 24.4807 101.492 23.5545 102.014 21.2068L102.738 17.951L102.407 15.5077C102.225 14.1639 102.049 13.0339 102.015 12.9966C101.92 12.8911 100.054 12.8997 99.9589 13.006ZM71.1711 15.771C73.3127 16.2868 72.6952 19.4701 70.2412 20.5644C69.4992 20.8954 67.6462 21.1014 67.6462 20.853C67.6462 20.812 67.8973 19.6578 68.2042 18.2881C68.5111 16.9184 68.7623 15.7797 68.7623 15.7578C68.7623 15.6646 70.7749 15.6755 71.1711 15.771Z" fill="white" fill-opacity="0.4"/>
</g>
<defs>
<clipPath id="clip0_275_219">
<rect width="156.271" height="28.9101" fill="white" transform="translate(0.863525 0.0368652)"/>
</clipPath>
</defs>
</svg>
