<svg xmlns="http://www.w3.org/2000/svg" width="25" height="25" fill="none" viewBox="0 0 25 25"><path stroke="#606060" stroke-linecap="round" stroke-linejoin="round" stroke-width="1.5" d="M22.0801 22.9456L20.0801 20.9456M11.5801 21.9456C12.8276 21.9456 14.063 21.6998 15.2156 21.2224C16.3682 20.745 17.4154 20.0452 18.2976 19.1631C19.1797 18.2809 19.8795 17.2336 20.3569 16.081C20.8344 14.9285 21.0801 13.6931 21.0801 12.4456C21.0801 11.198 20.8344 9.96266 20.3569 8.81006C19.8795 7.65747 19.1797 6.6102 18.2976 5.72804C17.4154 4.84589 16.3682 4.14612 15.2156 3.6687C14.063 3.19128 12.8276 2.94556 11.5801 2.94556C9.06052 2.94556 6.64416 3.94645 4.86256 5.72804C3.08097 7.50964 2.08008 9.926 2.08008 12.4456C2.08008 14.9651 3.08097 17.3815 4.86256 19.1631C6.64416 20.9447 9.06052 21.9456 11.5801 21.9456Z"/></svg>