<svg width="946" height="87" viewBox="0 0 946 87" fill="none" xmlns="http://www.w3.org/2000/svg">
<g opacity="0.3">
<path d="M1.37549 38.4441L1.37549 50.8216" stroke="white" stroke-width="1.18476"/>
<path d="M10.8535 38.4441L10.8535 50.8216" stroke="white" stroke-width="1.18476"/>
<path d="M20.3315 38.4441V50.8216" stroke="white" stroke-width="1.18476"/>
<path d="M29.8098 38.4441V50.8216" stroke="white" stroke-width="1.18476"/>
<path d="M39.2878 26.4832V50.8217" stroke="white" stroke-width="2.36953"/>
<path d="M48.7656 38.4441V50.8216" stroke="white" stroke-width="1.18476"/>
<path d="M58.2439 38.4441V50.8216" stroke="white" stroke-width="1.18476"/>
<path d="M67.7219 38.4441V50.8216" stroke="white" stroke-width="1.18476"/>
<path d="M77.2002 38.4441V50.8216" stroke="white" stroke-width="1.18476"/>
<path d="M86.6782 26.4832V50.8217" stroke="white" stroke-width="2.36953"/>
<path d="M96.1562 38.4441V50.8216" stroke="white" stroke-width="1.18476"/>
<path d="M105.635 38.4441V50.8216" stroke="white" stroke-width="1.18476"/>
<path d="M115.113 38.4441V50.8216" stroke="white" stroke-width="1.18476"/>
<path d="M124.591 38.4441V50.8216" stroke="white" stroke-width="1.18476"/>
<path d="M134.069 26.4832V50.8217" stroke="white" stroke-width="2.36953"/>
<path d="M143.547 38.4441V50.8216" stroke="white" stroke-width="1.18476"/>
<path d="M153.025 38.4441V50.8216" stroke="white" stroke-width="1.18476"/>
<path d="M162.503 38.4441V50.8216" stroke="white" stroke-width="1.18476"/>
<path d="M171.981 38.4441V50.8216" stroke="white" stroke-width="1.18476"/>
<path d="M181.459 26.4832V50.8217" stroke="white" stroke-width="2.36953"/>
<path d="M190.938 38.4441V50.8216" stroke="white" stroke-width="1.18476"/>
<path d="M200.416 38.4441V50.8216" stroke="white" stroke-width="1.18476"/>
<path d="M209.894 38.4441V50.8216" stroke="white" stroke-width="1.18476"/>
<path d="M219.372 38.4441V50.8216" stroke="white" stroke-width="1.18476"/>
<path d="M228.85 26.4832V50.8217" stroke="white" stroke-width="2.36953"/>
<path d="M238.329 38.4441V50.8216" stroke="white" stroke-width="1.18476"/>
<path d="M247.807 38.4441V50.8216" stroke="white" stroke-width="1.18476"/>
<path d="M257.285 38.4441V50.8216" stroke="white" stroke-width="1.18476"/>
<path d="M266.763 38.4441V50.8216" stroke="white" stroke-width="1.18476"/>
<path d="M276.241 26.4832V50.8217" stroke="white" stroke-width="2.36953"/>
<path d="M285.719 38.4441V50.8216" stroke="white" stroke-width="1.18476"/>
<path d="M295.197 38.4441V50.8216" stroke="white" stroke-width="1.18476"/>
<path d="M304.676 38.4441V50.8216" stroke="white" stroke-width="1.18476"/>
<path d="M314.154 38.4441V50.8216" stroke="white" stroke-width="1.18476"/>
<path d="M323.632 26.4832V50.8217" stroke="white" stroke-width="2.36953"/>
<path d="M333.11 38.4441V50.8216" stroke="white" stroke-width="1.18476"/>
<path d="M342.588 38.4441V50.8216" stroke="white" stroke-width="1.18476"/>
<path d="M352.066 38.4441V50.8216" stroke="white" stroke-width="1.18476"/>
<path d="M361.544 38.4441V50.8216" stroke="white" stroke-width="1.18476"/>
<path d="M371.022 26.4832V50.8217" stroke="white" stroke-width="2.36953"/>
<path d="M380.5 38.4441V50.8216" stroke="white" stroke-width="1.18476"/>
<path d="M389.979 38.4441V50.8216" stroke="white" stroke-width="1.18476"/>
<path d="M399.457 38.4441V50.8216" stroke="white" stroke-width="1.18476"/>
<path d="M408.935 38.4441V50.8216" stroke="white" stroke-width="1.18476"/>
<path d="M418.413 26.4832V50.8217" stroke="white" stroke-width="2.36953"/>
<path d="M427.891 38.4441V50.8216" stroke="white" stroke-width="1.18476"/>
<path d="M437.369 38.4441V50.8216" stroke="white" stroke-width="1.18476"/>
<path d="M446.847 38.4441V50.8216" stroke="white" stroke-width="1.18476"/>
<path d="M456.325 38.4441V50.8216" stroke="white" stroke-width="1.18476"/>
<path d="M465.803 26.4832V50.8217" stroke="white" stroke-width="2.36953"/>
<path d="M475.281 38.4441V50.8216" stroke="white" stroke-width="1.18476"/>
<path d="M484.76 38.4441V50.8216" stroke="white" stroke-width="1.18476"/>
<path d="M494.238 38.4441V50.8216" stroke="white" stroke-width="1.18476"/>
<path d="M503.716 38.4441V50.8216" stroke="white" stroke-width="1.18476"/>
<path d="M513.194 26.4832V50.8217" stroke="white" stroke-width="2.36953"/>
<path d="M522.672 38.4441V50.8216" stroke="white" stroke-width="1.18476"/>
<path d="M532.15 38.4441V50.8216" stroke="white" stroke-width="1.18476"/>
<path d="M541.628 38.4441V50.8216" stroke="white" stroke-width="1.18476"/>
<path d="M551.106 38.4441V50.8216" stroke="white" stroke-width="1.18476"/>
<path d="M560.584 26.4832V50.8217" stroke="white" stroke-width="2.36953"/>
<path d="M570.062 38.4441V50.8216" stroke="white" stroke-width="1.18476"/>
<path d="M579.541 38.4441V50.8216" stroke="white" stroke-width="1.18476"/>
<path d="M589.019 38.4441V50.8216" stroke="white" stroke-width="1.18476"/>
<path d="M598.497 38.4441V50.8216" stroke="white" stroke-width="1.18476"/>
<path d="M607.975 26.4832V50.8217" stroke="white" stroke-width="2.36953"/>
<path d="M617.453 38.4441V50.8216" stroke="white" stroke-width="1.18476"/>
<path d="M626.931 38.4441V50.8216" stroke="white" stroke-width="1.18476"/>
<path d="M636.409 38.4441V50.8216" stroke="white" stroke-width="1.18476"/>
<path d="M645.887 38.4441V50.8216" stroke="white" stroke-width="1.18476"/>
<path d="M655.366 26.4832V50.8217" stroke="white" stroke-width="2.36953"/>
<path d="M664.844 38.4441V50.8216" stroke="white" stroke-width="1.18476"/>
<path d="M674.322 38.4441V50.8216" stroke="white" stroke-width="1.18476"/>
<path d="M683.8 38.4441V50.8216" stroke="white" stroke-width="1.18476"/>
<path d="M693.278 38.4441V50.8216" stroke="white" stroke-width="1.18476"/>
<path d="M702.756 26.4832V50.8217" stroke="white" stroke-width="2.36953"/>
<path d="M712.235 38.4441V50.8216" stroke="white" stroke-width="1.18476"/>
<path d="M721.713 38.4441V50.8216" stroke="white" stroke-width="1.18476"/>
<path d="M731.191 38.4441V50.8216" stroke="white" stroke-width="1.18476"/>
<path d="M740.669 38.4441V50.8216" stroke="white" stroke-width="1.18476"/>
<path d="M750.147 26.4832V50.8217" stroke="white" stroke-width="2.36953"/>
<path d="M759.625 38.4441V50.8216" stroke="white" stroke-width="1.18476"/>
<path d="M769.103 38.4441V50.8216" stroke="white" stroke-width="1.18476"/>
<path d="M778.581 38.4441V50.8216" stroke="white" stroke-width="1.18476"/>
<path d="M788.06 38.4441V50.8216" stroke="white" stroke-width="1.18476"/>
<path d="M797.538 26.4832V50.8217" stroke="white" stroke-width="2.36953"/>
<path d="M807.016 38.4441V50.8216" stroke="white" stroke-width="1.18476"/>
<path d="M816.494 38.4441V50.8216" stroke="white" stroke-width="1.18476"/>
<path d="M825.972 38.4441V50.8216" stroke="white" stroke-width="1.18476"/>
<path d="M835.45 38.4441V50.8216" stroke="white" stroke-width="1.18476"/>
<path d="M844.928 26.4832V50.8217" stroke="white" stroke-width="2.36953"/>
<path d="M854.406 38.4441V50.8216" stroke="white" stroke-width="1.18476"/>
<path d="M863.885 38.4441V50.8216" stroke="white" stroke-width="1.18476"/>
<path d="M873.363 38.4441V50.8216" stroke="white" stroke-width="1.18476"/>
<path d="M882.841 38.4441V50.8216" stroke="white" stroke-width="1.18476"/>
<path d="M892.319 26.4832V50.8217" stroke="white" stroke-width="2.36953"/>
<path d="M901.797 38.4441V50.8216" stroke="white" stroke-width="1.18476"/>
<path d="M911.275 38.4441V50.8216" stroke="white" stroke-width="1.18476"/>
<path d="M920.753 38.4441V50.8216" stroke="white" stroke-width="1.18476"/>
<path d="M930.231 38.4441V50.8216" stroke="white" stroke-width="1.18476"/>
<path d="M939.709 26.4832V50.8217" stroke="white" stroke-width="2.36953"/>
<path d="M28.3167 7.62281L32.762 7.62281V8.85023H28.3167V7.62281ZM38.5632 13.0633C37.9329 13.0633 37.3855 12.9748 36.9211 12.7979C36.4677 12.6209 36.0696 12.3721 35.7268 12.0515C35.1187 11.4986 34.6985 10.824 34.4662 10.0279C34.234 9.22067 34.1179 8.23099 34.1179 7.05886C34.1179 6.17424 34.2119 5.37255 34.3999 4.65379C34.5879 3.93503 34.8643 3.32133 35.2292 2.81267C35.6052 2.29295 36.0641 1.89487 36.6059 1.61842C37.1588 1.33092 37.7946 1.18717 38.5134 1.18717C39.0774 1.18717 39.575 1.27563 40.0062 1.45256C40.4375 1.62948 40.7968 1.8617 41.0843 2.1492C41.3829 2.4367 41.6151 2.77396 41.781 3.16099C41.9469 3.53695 42.0519 3.9295 42.0961 4.33864H40.7194C40.6973 4.07326 40.631 3.81893 40.5204 3.57565C40.4098 3.33238 40.2605 3.12228 40.0726 2.94536C39.8956 2.76844 39.68 2.63021 39.4257 2.53069C39.1713 2.42011 38.8783 2.36482 38.5466 2.36482C37.9937 2.36482 37.5237 2.4754 37.1367 2.69656C36.7497 2.90666 36.4345 3.21075 36.1913 3.60883C35.9591 4.00691 35.7821 4.48792 35.6605 5.05187C35.5499 5.61582 35.4891 6.24612 35.478 6.94276H35.5112C35.8761 6.4341 36.3129 6.04708 36.8216 5.78169C37.3413 5.50524 37.9439 5.36702 38.6295 5.36702C39.1492 5.36702 39.6358 5.46654 40.0891 5.66558C40.5425 5.86462 40.9351 6.14107 41.2668 6.49492C41.6096 6.83771 41.8805 7.24132 42.0795 7.70575C42.2786 8.17017 42.3781 8.66225 42.3781 9.18196C42.3781 9.71274 42.2786 10.2159 42.0795 10.6914C41.8916 11.1558 41.6206 11.5649 41.2668 11.9188C40.924 12.2726 40.5204 12.5546 40.056 12.7647C39.5915 12.9637 39.0939 13.0633 38.5632 13.0633ZM38.53 11.9354C38.8949 11.9354 39.2322 11.869 39.5418 11.7363C39.8625 11.6036 40.1334 11.4212 40.3545 11.189C40.5867 10.9457 40.7637 10.6582 40.8853 10.3264C41.018 9.99471 41.0843 9.6298 41.0843 9.23172C41.0843 8.83364 41.018 8.46874 40.8853 8.137C40.7526 7.79421 40.5702 7.50671 40.3379 7.27449C40.1057 7.03122 39.8293 6.84324 39.5086 6.71054C39.1879 6.57785 38.8451 6.5115 38.4802 6.5115C38.0711 6.5115 37.6951 6.57785 37.3523 6.71054C37.0206 6.83218 36.7331 7.01463 36.4898 7.25791C36.2466 7.49012 36.0586 7.77209 35.9259 8.10383C35.7932 8.43556 35.7268 8.806 35.7268 9.21514C35.7268 9.61322 35.7987 9.98365 35.9425 10.3264C36.0862 10.6582 36.2797 10.9457 36.523 11.189C36.7773 11.4212 37.0759 11.6036 37.4187 11.7363C37.7615 11.869 38.1319 11.9354 38.53 11.9354ZM47.5872 13.0633C47.0012 13.0633 46.4538 12.9803 45.9452 12.8145C45.4476 12.6375 45.0163 12.3943 44.6514 12.0846C44.2865 11.775 43.9935 11.4046 43.7723 10.9733C43.5511 10.5421 43.4295 10.0611 43.4074 9.53028H44.7841C44.8726 10.238 45.1545 10.8019 45.63 11.2221C46.1166 11.6313 46.7634 11.8358 47.5707 11.8358C48.3889 11.8358 49.0358 11.587 49.5113 11.0894C49.9978 10.5808 50.2411 9.91178 50.2411 9.08244C50.2411 8.65119 50.1692 8.26969 50.0255 7.93796C49.8928 7.60623 49.7048 7.32425 49.4615 7.09204C49.2183 6.85982 48.9363 6.6829 48.6156 6.56126C48.2949 6.43963 47.9466 6.37881 47.5707 6.37881C46.9514 6.37881 46.4317 6.48939 46.0115 6.71054C45.5913 6.9317 45.2596 7.21367 45.0163 7.55647H43.6728L44.9334 1.45256L50.9875 1.45256V2.69656L45.912 2.69656L45.1656 6.11342H45.1988C45.5194 5.8038 45.8954 5.56606 46.3267 5.40019C46.7579 5.23433 47.25 5.15139 47.8029 5.15139C48.3115 5.15139 48.7981 5.23986 49.2625 5.41678C49.7269 5.59371 50.1361 5.85356 50.4899 6.19636C50.8438 6.52809 51.1257 6.94276 51.3358 7.44036C51.557 7.9269 51.6676 8.48532 51.6676 9.11562C51.6676 9.7238 51.5625 10.2712 51.3524 10.7577C51.1534 11.2442 50.8714 11.6589 50.5065 12.0017C50.1416 12.3445 49.7103 12.6099 49.2127 12.7979C48.7151 12.9748 48.1733 13.0633 47.5872 13.0633Z" fill="white"/>
<path d="M74.4637 7.62281L78.9089 7.62281V8.85023H74.4637V7.62281ZM84.7101 13.0633C84.0799 13.0633 83.5325 12.9748 83.0681 12.7979C82.6147 12.6209 82.2166 12.3721 81.8738 12.0515C81.2656 11.4986 80.8454 10.824 80.6132 10.0279C80.381 9.22067 80.2649 8.23099 80.2649 7.05886C80.2649 6.17424 80.3589 5.37255 80.5469 4.65379C80.7349 3.93503 81.0113 3.32133 81.3762 2.81267C81.7522 2.29295 82.2111 1.89487 82.7529 1.61842C83.3058 1.33092 83.9416 1.18717 84.6604 1.18717C85.2243 1.18717 85.7219 1.27563 86.1532 1.45256C86.5844 1.62948 86.9438 1.8617 87.2313 2.1492C87.5299 2.4367 87.7621 2.77396 87.928 3.16099C88.0938 3.53695 88.1989 3.9295 88.2431 4.33864H86.8664C86.8443 4.07326 86.778 3.81893 86.6674 3.57565C86.5568 3.33238 86.4075 3.12228 86.2195 2.94536C86.0426 2.76844 85.827 2.63021 85.5727 2.53069C85.3183 2.42011 85.0253 2.36482 84.6936 2.36482C84.1407 2.36482 83.6707 2.4754 83.2837 2.69656C82.8967 2.90666 82.5815 3.21075 82.3382 3.60883C82.106 4.00691 81.9291 4.48792 81.8075 5.05187C81.6969 5.61582 81.6361 6.24612 81.625 6.94276H81.6582C82.0231 6.4341 82.4599 6.04708 82.9685 5.78169C83.4883 5.50524 84.0909 5.36702 84.7765 5.36702C85.2962 5.36702 85.7828 5.46654 86.2361 5.66558C86.6895 5.86462 87.082 6.14107 87.4138 6.49492C87.7566 6.83771 88.0275 7.24132 88.2265 7.70575C88.4256 8.17017 88.5251 8.66225 88.5251 9.18196C88.5251 9.71274 88.4256 10.2159 88.2265 10.6914C88.0385 11.1558 87.7676 11.5649 87.4138 11.9188C87.071 12.2726 86.6674 12.5546 86.2029 12.7647C85.7385 12.9637 85.2409 13.0633 84.7101 13.0633ZM84.677 11.9354C85.0419 11.9354 85.3791 11.869 85.6888 11.7363C86.0094 11.6036 86.2804 11.4212 86.5015 11.189C86.7337 10.9457 86.9106 10.6582 87.0323 10.3264C87.165 9.99471 87.2313 9.6298 87.2313 9.23172C87.2313 8.83364 87.165 8.46874 87.0323 8.137C86.8996 7.79421 86.7171 7.50671 86.4849 7.27449C86.2527 7.03122 85.9763 6.84324 85.6556 6.71054C85.3349 6.57785 84.9921 6.5115 84.6272 6.5115C84.2181 6.5115 83.8421 6.57785 83.4993 6.71054C83.1676 6.83218 82.8801 7.01463 82.6368 7.25791C82.3935 7.49012 82.2056 7.77209 82.0729 8.10383C81.9402 8.43556 81.8738 8.806 81.8738 9.21514C81.8738 9.61322 81.9457 9.98365 82.0894 10.3264C82.2332 10.6582 82.4267 10.9457 82.67 11.189C82.9243 11.4212 83.2229 11.6036 83.5657 11.7363C83.9085 11.869 84.2789 11.9354 84.677 11.9354ZM94.3148 13.0633C93.6181 13.0633 92.9934 12.925 92.4405 12.6486C91.8986 12.3611 91.4397 11.963 91.0638 11.4543C90.6878 10.9346 90.4003 10.3099 90.2013 9.58004C90.0022 8.85023 89.9027 8.03195 89.9027 7.12521C89.9027 6.20741 90.0077 5.38361 90.2178 4.65379C90.4279 3.91292 90.7265 3.28815 91.1135 2.77949C91.5005 2.25978 91.965 1.86722 92.5068 1.60184C93.0486 1.32539 93.6568 1.18717 94.3313 1.18717C95.0059 1.18717 95.6141 1.32539 96.1559 1.60184C96.6977 1.86722 97.1566 2.25425 97.5326 2.76291C97.9196 3.27157 98.2126 3.89633 98.4117 4.6372C98.6218 5.36702 98.7268 6.19636 98.7268 7.12521C98.7268 8.03195 98.6273 8.85023 98.4283 9.58004C98.2403 10.3099 97.9583 10.9346 97.5823 11.4543C97.2064 11.963 96.7419 12.3611 96.1891 12.6486C95.6472 12.925 95.0225 13.0633 94.3148 13.0633ZM94.3313 11.8524C95.3376 11.8524 96.0785 11.4322 96.554 10.5918C97.0405 9.75144 97.2838 8.5959 97.2838 7.12521C97.2838 6.40645 97.223 5.75404 97.1013 5.16798C96.9797 4.58192 96.7917 4.08431 96.5374 3.67518C96.2941 3.25498 95.99 2.9343 95.6251 2.71315C95.2602 2.49199 94.8289 2.38141 94.3313 2.38141C93.3251 2.38141 92.5732 2.80714 92.0756 3.65859C91.589 4.49898 91.3457 5.65452 91.3457 7.12521C91.3457 7.84397 91.4066 8.49638 91.5282 9.08244C91.6498 9.66851 91.8323 10.1661 92.0756 10.5752C92.3299 10.9844 92.645 11.2995 93.021 11.5207C93.397 11.7418 93.8337 11.8524 94.3313 11.8524Z" fill="white"/>
<path d="M122.993 7.62281L127.438 7.62281V8.85023H122.993V7.62281ZM133.119 13.0633C132.599 13.0633 132.08 13.0024 131.56 12.8808C131.04 12.7592 130.57 12.5601 130.15 12.2837C129.741 12.0072 129.409 11.6479 129.155 11.2055C128.901 10.7522 128.773 10.2048 128.773 9.56346C128.773 9.15432 128.834 8.78941 128.956 8.46873C129.078 8.14806 129.243 7.87161 129.453 7.6394C129.675 7.39613 129.923 7.19156 130.2 7.02569C130.487 6.84877 130.791 6.71054 131.112 6.61102V6.56126C130.581 6.36222 130.15 6.05813 129.818 5.64899C129.498 5.23986 129.337 4.73673 129.337 4.1396C129.337 3.68623 129.431 3.27709 129.619 2.91219C129.818 2.54728 130.084 2.23766 130.415 1.98333C130.758 1.71794 131.156 1.5189 131.61 1.38621C132.063 1.24246 132.55 1.17058 133.069 1.17058C133.589 1.17058 134.076 1.24246 134.529 1.38621C134.982 1.5189 135.375 1.71794 135.707 1.98333C136.049 2.23766 136.315 2.54728 136.503 2.91219C136.702 3.27709 136.801 3.68623 136.801 4.1396C136.801 4.73673 136.641 5.23986 136.32 5.64899C136.011 6.04708 135.591 6.35116 135.06 6.56126V6.61102C135.38 6.71054 135.679 6.84877 135.955 7.02569C136.243 7.19156 136.486 7.40166 136.685 7.65599C136.895 7.89926 137.061 8.18123 137.183 8.50191C137.305 8.82258 137.365 9.17643 137.365 9.56346C137.365 10.2159 137.238 10.7632 136.984 11.2055C136.741 11.6479 136.42 12.0072 136.022 12.2837C135.624 12.5601 135.17 12.7592 134.662 12.8808C134.153 13.0024 133.639 13.0633 133.119 13.0633ZM133.119 11.9022C134.015 11.9022 134.711 11.6976 135.209 11.2885C135.718 10.8683 135.972 10.2933 135.972 9.56346C135.972 8.81153 135.718 8.21993 135.209 7.78868C134.7 7.35743 133.987 7.1418 133.069 7.1418C132.174 7.1418 131.472 7.35743 130.963 7.78868C130.454 8.21993 130.2 8.81153 130.2 9.56346C130.2 10.3043 130.454 10.8793 130.963 11.2885C131.483 11.6976 132.201 11.9022 133.119 11.9022ZM133.069 6.04708C133.799 6.04708 134.374 5.88674 134.794 5.56606C135.226 5.23433 135.441 4.77543 135.441 4.18936C135.441 3.6033 135.226 3.14993 134.794 2.82925C134.374 2.49752 133.799 2.33165 133.069 2.33165C132.34 2.33165 131.759 2.49752 131.328 2.82925C130.908 3.14993 130.697 3.6033 130.697 4.18936C130.697 4.77543 130.908 5.23433 131.328 5.56606C131.759 5.88674 132.34 6.04708 133.069 6.04708ZM142.474 13.0633C141.888 13.0633 141.34 12.9803 140.832 12.8145C140.334 12.6375 139.903 12.3943 139.538 12.0846C139.173 11.775 138.88 11.4046 138.659 10.9733C138.438 10.5421 138.316 10.0611 138.294 9.53028H139.671C139.759 10.238 140.041 10.8019 140.517 11.2221C141.003 11.6313 141.65 11.8358 142.457 11.8358C143.275 11.8358 143.922 11.587 144.398 11.0894C144.884 10.5808 145.128 9.91178 145.128 9.08244C145.128 8.65119 145.056 8.26969 144.912 7.93796C144.779 7.60623 144.591 7.32425 144.348 7.09204C144.105 6.85982 143.823 6.6829 143.502 6.56126C143.181 6.43963 142.833 6.37881 142.457 6.37881C141.838 6.37881 141.318 6.48939 140.898 6.71054C140.478 6.9317 140.146 7.21367 139.903 7.55647H138.559L139.82 1.45256L145.874 1.45256V2.69656L140.799 2.69656L140.052 6.11342H140.085C140.406 5.8038 140.782 5.56606 141.213 5.40019C141.644 5.23433 142.137 5.15139 142.689 5.15139C143.198 5.15139 143.685 5.23986 144.149 5.41678C144.613 5.59371 145.023 5.85356 145.376 6.19636C145.73 6.52809 146.012 6.94276 146.222 7.44036C146.444 7.9269 146.554 8.48532 146.554 9.11562C146.554 9.7238 146.449 10.2712 146.239 10.7577C146.04 11.2442 145.758 11.6589 145.393 12.0017C145.028 12.3445 144.597 12.6099 144.099 12.7979C143.602 12.9748 143.06 13.0633 142.474 13.0633Z" fill="white"/>
<path d="M169.221 7.62281L173.666 7.62281V8.85023H169.221V7.62281ZM179.347 13.0633C178.827 13.0633 178.308 13.0024 177.788 12.8808C177.268 12.7592 176.798 12.5601 176.378 12.2837C175.969 12.0072 175.637 11.6479 175.383 11.2055C175.129 10.7522 175.001 10.2048 175.001 9.56346C175.001 9.15432 175.062 8.78941 175.184 8.46873C175.305 8.14806 175.471 7.87161 175.681 7.6394C175.903 7.39613 176.151 7.19156 176.428 7.02569C176.715 6.84877 177.019 6.71054 177.34 6.61102V6.56126C176.809 6.36222 176.378 6.05813 176.046 5.64899C175.726 5.23986 175.565 4.73673 175.565 4.1396C175.565 3.68623 175.659 3.27709 175.847 2.91219C176.046 2.54728 176.312 2.23766 176.643 1.98333C176.986 1.71794 177.384 1.5189 177.838 1.38621C178.291 1.24246 178.778 1.17058 179.297 1.17058C179.817 1.17058 180.304 1.24246 180.757 1.38621C181.21 1.5189 181.603 1.71794 181.935 1.98333C182.277 2.23766 182.543 2.54728 182.731 2.91219C182.93 3.27709 183.029 3.68623 183.029 4.1396C183.029 4.73673 182.869 5.23986 182.548 5.64899C182.239 6.04708 181.819 6.35116 181.288 6.56126V6.61102C181.608 6.71054 181.907 6.84877 182.183 7.02569C182.471 7.19156 182.714 7.40166 182.913 7.65599C183.123 7.89926 183.289 8.18123 183.411 8.50191C183.532 8.82258 183.593 9.17643 183.593 9.56346C183.593 10.2159 183.466 10.7632 183.212 11.2055C182.969 11.6479 182.648 12.0072 182.25 12.2837C181.852 12.5601 181.398 12.7592 180.89 12.8808C180.381 13.0024 179.867 13.0633 179.347 13.0633ZM179.347 11.9022C180.243 11.9022 180.939 11.6976 181.437 11.2885C181.946 10.8683 182.2 10.2933 182.2 9.56346C182.2 8.81153 181.946 8.21993 181.437 7.78868C180.928 7.35743 180.215 7.1418 179.297 7.1418C178.402 7.1418 177.699 7.35743 177.191 7.78868C176.682 8.21993 176.428 8.81153 176.428 9.56346C176.428 10.3043 176.682 10.8793 177.191 11.2885C177.711 11.6976 178.429 11.9022 179.347 11.9022ZM179.297 6.04708C180.027 6.04708 180.602 5.88674 181.022 5.56606C181.454 5.23433 181.669 4.77543 181.669 4.18936C181.669 3.6033 181.454 3.14993 181.022 2.82925C180.602 2.49752 180.027 2.33165 179.297 2.33165C178.568 2.33165 177.987 2.49752 177.556 2.82925C177.136 3.14993 176.925 3.6033 176.925 4.18936C176.925 4.77543 177.136 5.23433 177.556 5.56606C177.987 5.88674 178.568 6.04708 179.297 6.04708ZM189.12 13.0633C188.424 13.0633 187.799 12.925 187.246 12.6486C186.704 12.3611 186.245 11.963 185.869 11.4543C185.493 10.9346 185.206 10.3099 185.007 9.58004C184.808 8.85023 184.708 8.03195 184.708 7.12521C184.708 6.20741 184.813 5.38361 185.023 4.65379C185.233 3.91292 185.532 3.28815 185.919 2.77949C186.306 2.25978 186.771 1.86722 187.312 1.60184C187.854 1.32539 188.462 1.18717 189.137 1.18717C189.811 1.18717 190.42 1.32539 190.961 1.60184C191.503 1.86722 191.962 2.25425 192.338 2.76291C192.725 3.27157 193.018 3.89633 193.217 4.6372C193.427 5.36702 193.532 6.19636 193.532 7.12521C193.532 8.03195 193.433 8.85023 193.234 9.58004C193.046 10.3099 192.764 10.9346 192.388 11.4543C192.012 11.963 191.547 12.3611 190.995 12.6486C190.453 12.925 189.828 13.0633 189.12 13.0633ZM189.137 11.8524C190.143 11.8524 190.884 11.4322 191.36 10.5918C191.846 9.75144 192.089 8.5959 192.089 7.12521C192.089 6.40645 192.029 5.75404 191.907 5.16798C191.785 4.58192 191.597 4.08431 191.343 3.67518C191.1 3.25498 190.796 2.9343 190.431 2.71315C190.066 2.49199 189.634 2.38141 189.137 2.38141C188.131 2.38141 187.379 2.80714 186.881 3.65859C186.395 4.49898 186.151 5.65452 186.151 7.12521C186.151 7.84397 186.212 8.49638 186.334 9.08244C186.455 9.66851 186.638 10.1661 186.881 10.5752C187.135 10.9844 187.451 11.2995 187.827 11.5207C188.203 11.7418 188.639 11.8524 189.137 11.8524Z" fill="white"/>
<path d="M217.859 7.62281L222.304 7.62281V8.85023H217.859V7.62281ZM224.338 12.8145C224.404 11.8193 224.576 10.8351 224.852 9.86202C225.129 8.87787 225.482 7.94349 225.914 7.05886C226.345 6.17424 226.842 5.36149 227.406 4.62062C227.97 3.87974 228.573 3.24945 229.214 2.72973V2.69656L222.729 2.69656V1.45256L230.674 1.45256V2.59704C230.088 3.1057 229.518 3.71388 228.966 4.42158C228.413 5.12928 227.91 5.91991 227.456 6.79348C227.014 7.65599 226.643 8.5959 226.345 9.61322C226.057 10.6195 225.886 11.6866 225.831 12.8145H224.338ZM235.17 13.0633C234.584 13.0633 234.036 12.9803 233.528 12.8145C233.03 12.6375 232.599 12.3943 232.234 12.0846C231.869 11.775 231.576 11.4046 231.355 10.9733C231.134 10.5421 231.012 10.0611 230.99 9.53028H232.367C232.455 10.238 232.737 10.8019 233.213 11.2221C233.699 11.6313 234.346 11.8358 235.153 11.8358C235.971 11.8358 236.618 11.587 237.094 11.0894C237.58 10.5808 237.824 9.91178 237.824 9.08244C237.824 8.65119 237.752 8.26969 237.608 7.93796C237.475 7.60623 237.287 7.32425 237.044 7.09204C236.801 6.85982 236.519 6.6829 236.198 6.56126C235.877 6.43963 235.529 6.37881 235.153 6.37881C234.534 6.37881 234.014 6.48939 233.594 6.71054C233.174 6.9317 232.842 7.21367 232.599 7.55647H231.255L232.516 1.45256L238.57 1.45256V2.69656L233.495 2.69656L232.748 6.11342H232.781C233.102 5.8038 233.478 5.56606 233.909 5.40019C234.34 5.23433 234.833 5.15139 235.385 5.15139C235.894 5.15139 236.381 5.23986 236.845 5.41678C237.309 5.59371 237.719 5.85356 238.072 6.19636C238.426 6.52809 238.708 6.94276 238.918 7.44036C239.14 7.9269 239.25 8.48532 239.25 9.11562C239.25 9.7238 239.145 10.2712 238.935 10.7577C238.736 11.2442 238.454 11.6589 238.089 12.0017C237.724 12.3445 237.293 12.6099 236.795 12.7979C236.298 12.9748 235.756 13.0633 235.17 13.0633Z" fill="white"/>
<path d="M265.191 7.62281L269.636 7.62281V8.85023H265.191V7.62281ZM271.669 12.8145C271.736 11.8193 271.907 10.8351 272.184 9.86202C272.46 8.87787 272.814 7.94349 273.245 7.05886C273.676 6.17424 274.174 5.36149 274.738 4.62062C275.302 3.87974 275.905 3.24945 276.546 2.72973V2.69656L270.061 2.69656V1.45256L278.006 1.45256V2.59704C277.419 3.1057 276.85 3.71388 276.297 4.42158C275.744 5.12928 275.241 5.91991 274.788 6.79348C274.345 7.65599 273.975 8.5959 273.676 9.61322C273.389 10.6195 273.218 11.6866 273.162 12.8145H271.669ZM283.082 13.0633C282.385 13.0633 281.76 12.925 281.208 12.6486C280.666 12.3611 280.207 11.963 279.831 11.4543C279.455 10.9346 279.167 10.3099 278.968 9.58004C278.769 8.85023 278.67 8.03195 278.67 7.12521C278.67 6.20741 278.775 5.38361 278.985 4.65379C279.195 3.91292 279.494 3.28815 279.881 2.77949C280.268 2.25978 280.732 1.86722 281.274 1.60184C281.816 1.32539 282.424 1.18717 283.098 1.18717C283.773 1.18717 284.381 1.32539 284.923 1.60184C285.465 1.86722 285.924 2.25425 286.3 2.76291C286.687 3.27157 286.98 3.89633 287.179 4.6372C287.389 5.36702 287.494 6.19636 287.494 7.12521C287.494 8.03195 287.394 8.85023 287.195 9.58004C287.007 10.3099 286.725 10.9346 286.349 11.4543C285.973 11.963 285.509 12.3611 284.956 12.6486C284.414 12.925 283.79 13.0633 283.082 13.0633ZM283.098 11.8524C284.105 11.8524 284.846 11.4322 285.321 10.5918C285.808 9.75144 286.051 8.5959 286.051 7.12521C286.051 6.40645 285.99 5.75404 285.868 5.16798C285.747 4.58192 285.559 4.08431 285.304 3.67518C285.061 3.25498 284.757 2.9343 284.392 2.71315C284.027 2.49199 283.596 2.38141 283.098 2.38141C282.092 2.38141 281.34 2.80714 280.843 3.65859C280.356 4.49898 280.113 5.65452 280.113 7.12521C280.113 7.84397 280.174 8.49638 280.295 9.08244C280.417 9.66851 280.599 10.1661 280.843 10.5752C281.097 10.9844 281.412 11.2995 281.788 11.5207C282.164 11.7418 282.601 11.8524 283.098 11.8524Z" fill="white"/>
<path d="M312.66 7.62281L317.105 7.62281V8.85023H312.66V7.62281ZM322.907 13.0633C322.276 13.0633 321.729 12.9748 321.265 12.7979C320.811 12.6209 320.413 12.3721 320.07 12.0515C319.462 11.4986 319.042 10.824 318.81 10.0279C318.578 9.22067 318.461 8.23099 318.461 7.05886C318.461 6.17424 318.555 5.37255 318.743 4.65379C318.931 3.93503 319.208 3.32133 319.573 2.81267C319.949 2.29295 320.408 1.89487 320.949 1.61842C321.502 1.33092 322.138 1.18717 322.857 1.18717C323.421 1.18717 323.918 1.27563 324.35 1.45256C324.781 1.62948 325.14 1.8617 325.428 2.1492C325.726 2.4367 325.959 2.77396 326.124 3.16099C326.29 3.53695 326.395 3.9295 326.44 4.33864H325.063C325.041 4.07326 324.974 3.81893 324.864 3.57565C324.753 3.33238 324.604 3.12228 324.416 2.94536C324.239 2.76844 324.024 2.63021 323.769 2.53069C323.515 2.42011 323.222 2.36482 322.89 2.36482C322.337 2.36482 321.867 2.4754 321.48 2.69656C321.093 2.90666 320.778 3.21075 320.535 3.60883C320.303 4.00691 320.126 4.48792 320.004 5.05187C319.893 5.61582 319.833 6.24612 319.822 6.94276H319.855C320.22 6.4341 320.656 6.04708 321.165 5.78169C321.685 5.50524 322.287 5.36702 322.973 5.36702C323.493 5.36702 323.979 5.46654 324.433 5.66558C324.886 5.86462 325.279 6.14107 325.61 6.49492C325.953 6.83771 326.224 7.24132 326.423 7.70575C326.622 8.17017 326.722 8.66225 326.722 9.18196C326.722 9.71274 326.622 10.2159 326.423 10.6914C326.235 11.1558 325.964 11.5649 325.61 11.9188C325.268 12.2726 324.864 12.5546 324.399 12.7647C323.935 12.9637 323.437 13.0633 322.907 13.0633ZM322.873 11.9354C323.238 11.9354 323.576 11.869 323.885 11.7363C324.206 11.6036 324.477 11.4212 324.698 11.189C324.93 10.9457 325.107 10.6582 325.229 10.3264C325.362 9.99471 325.428 9.6298 325.428 9.23172C325.428 8.83364 325.362 8.46874 325.229 8.137C325.096 7.79421 324.914 7.50671 324.681 7.27449C324.449 7.03122 324.173 6.84324 323.852 6.71054C323.531 6.57785 323.189 6.5115 322.824 6.5115C322.415 6.5115 322.039 6.57785 321.696 6.71054C321.364 6.83218 321.077 7.01463 320.833 7.25791C320.59 7.49012 320.402 7.77209 320.269 8.10383C320.137 8.43556 320.07 8.806 320.07 9.21514C320.07 9.61322 320.142 9.98365 320.286 10.3264C320.43 10.6582 320.623 10.9457 320.867 11.189C321.121 11.4212 321.419 11.6036 321.762 11.7363C322.105 11.869 322.475 11.9354 322.873 11.9354ZM331.931 13.0633C331.345 13.0633 330.797 12.9803 330.289 12.8145C329.791 12.6375 329.36 12.3943 328.995 12.0846C328.63 11.775 328.337 11.4046 328.116 10.9733C327.895 10.5421 327.773 10.0611 327.751 9.53028H329.128C329.216 10.238 329.498 10.8019 329.974 11.2221C330.46 11.6313 331.107 11.8358 331.914 11.8358C332.732 11.8358 333.379 11.587 333.855 11.0894C334.341 10.5808 334.585 9.91178 334.585 9.08244C334.585 8.65119 334.513 8.26969 334.369 7.93796C334.236 7.60623 334.048 7.32425 333.805 7.09204C333.562 6.85982 333.28 6.6829 332.959 6.56126C332.638 6.43963 332.29 6.37881 331.914 6.37881C331.295 6.37881 330.775 6.48939 330.355 6.71054C329.935 6.9317 329.603 7.21367 329.36 7.55647H328.016L329.277 1.45256L335.331 1.45256V2.69656L330.255 2.69656L329.509 6.11342H329.542C329.863 5.8038 330.239 5.56606 330.67 5.40019C331.101 5.23433 331.593 5.15139 332.146 5.15139C332.655 5.15139 333.142 5.23986 333.606 5.41678C334.07 5.59371 334.48 5.85356 334.833 6.19636C335.187 6.52809 335.469 6.94276 335.679 7.44036C335.901 7.9269 336.011 8.48532 336.011 9.11562C336.011 9.7238 335.906 10.2712 335.696 10.7577C335.497 11.2442 335.215 11.6589 334.85 12.0017C334.485 12.3445 334.054 12.6099 333.556 12.7979C333.059 12.9748 332.517 13.0633 331.931 13.0633Z" fill="white"/>
<path d="M358.807 7.62281L363.253 7.62281V8.85023H358.807V7.62281ZM369.054 13.0633C368.424 13.0633 367.876 12.9748 367.412 12.7979C366.958 12.6209 366.56 12.3721 366.218 12.0515C365.609 11.4986 365.189 10.824 364.957 10.0279C364.725 9.22067 364.609 8.23099 364.609 7.05886C364.609 6.17424 364.703 5.37255 364.891 4.65379C365.079 3.93503 365.355 3.32133 365.72 2.81267C366.096 2.29295 366.555 1.89487 367.097 1.61842C367.65 1.33092 368.285 1.18717 369.004 1.18717C369.568 1.18717 370.066 1.27563 370.497 1.45256C370.928 1.62948 371.288 1.8617 371.575 2.1492C371.874 2.4367 372.106 2.77396 372.272 3.16099C372.438 3.53695 372.543 3.9295 372.587 4.33864H371.21C371.188 4.07326 371.122 3.81893 371.011 3.57565C370.901 3.33238 370.751 3.12228 370.563 2.94536C370.386 2.76844 370.171 2.63021 369.916 2.53069C369.662 2.42011 369.369 2.36482 369.037 2.36482C368.484 2.36482 368.014 2.4754 367.627 2.69656C367.24 2.90666 366.925 3.21075 366.682 3.60883C366.45 4.00691 366.273 4.48792 366.151 5.05187C366.041 5.61582 365.98 6.24612 365.969 6.94276H366.002C366.367 6.4341 366.804 6.04708 367.312 5.78169C367.832 5.50524 368.435 5.36702 369.12 5.36702C369.64 5.36702 370.127 5.46654 370.58 5.66558C371.033 5.86462 371.426 6.14107 371.758 6.49492C372.1 6.83771 372.371 7.24132 372.57 7.70575C372.769 8.17017 372.869 8.66225 372.869 9.18196C372.869 9.71274 372.769 10.2159 372.57 10.6914C372.382 11.1558 372.111 11.5649 371.758 11.9188C371.415 12.2726 371.011 12.5546 370.547 12.7647C370.082 12.9637 369.585 13.0633 369.054 13.0633ZM369.021 11.9354C369.386 11.9354 369.723 11.869 370.033 11.7363C370.353 11.6036 370.624 11.4212 370.845 11.189C371.077 10.9457 371.254 10.6582 371.376 10.3264C371.509 9.99471 371.575 9.6298 371.575 9.23172C371.575 8.83364 371.509 8.46874 371.376 8.137C371.243 7.79421 371.061 7.50671 370.829 7.27449C370.596 7.03122 370.32 6.84324 369.999 6.71054C369.679 6.57785 369.336 6.5115 368.971 6.5115C368.562 6.5115 368.186 6.57785 367.843 6.71054C367.511 6.83218 367.224 7.01463 366.981 7.25791C366.737 7.49012 366.549 7.77209 366.417 8.10383C366.284 8.43556 366.218 8.806 366.218 9.21514C366.218 9.61322 366.289 9.98365 366.433 10.3264C366.577 10.6582 366.77 10.9457 367.014 11.189C367.268 11.4212 367.567 11.6036 367.909 11.7363C368.252 11.869 368.623 11.9354 369.021 11.9354ZM378.659 13.0633C377.962 13.0633 377.337 12.925 376.784 12.6486C376.242 12.3611 375.783 11.963 375.408 11.4543C375.032 10.9346 374.744 10.3099 374.545 9.58004C374.346 8.85023 374.246 8.03195 374.246 7.12521C374.246 6.20741 374.351 5.38361 374.562 4.65379C374.772 3.91292 375.07 3.28815 375.457 2.77949C375.844 2.25978 376.309 1.86722 376.851 1.60184C377.392 1.32539 378.001 1.18717 378.675 1.18717C379.35 1.18717 379.958 1.32539 380.5 1.60184C381.041 1.86722 381.5 2.25425 381.876 2.76291C382.263 3.27157 382.556 3.89633 382.755 4.6372C382.966 5.36702 383.071 6.19636 383.071 7.12521C383.071 8.03195 382.971 8.85023 382.772 9.58004C382.584 10.3099 382.302 10.9346 381.926 11.4543C381.55 11.963 381.086 12.3611 380.533 12.6486C379.991 12.925 379.366 13.0633 378.659 13.0633ZM378.675 11.8524C379.681 11.8524 380.422 11.4322 380.898 10.5918C381.384 9.75144 381.628 8.5959 381.628 7.12521C381.628 6.40645 381.567 5.75404 381.445 5.16798C381.323 4.58192 381.135 4.08431 380.881 3.67518C380.638 3.25498 380.334 2.9343 379.969 2.71315C379.604 2.49199 379.173 2.38141 378.675 2.38141C377.669 2.38141 376.917 2.80714 376.419 3.65859C375.933 4.49898 375.689 5.65452 375.689 7.12521C375.689 7.84397 375.75 8.49638 375.872 9.08244C375.994 9.66851 376.176 10.1661 376.419 10.5752C376.674 10.9844 376.989 11.2995 377.365 11.5207C377.741 11.7418 378.177 11.8524 378.675 11.8524Z" fill="white"/>
<path d="M407.676 7.62281L412.122 7.62281V8.85023H407.676V7.62281ZM417.309 13.0633C416.723 13.0633 416.176 12.9803 415.667 12.8145C415.169 12.6375 414.738 12.3943 414.373 12.0846C414.008 11.775 413.715 11.4046 413.494 10.9733C413.273 10.5421 413.151 10.0611 413.129 9.53028L414.506 9.53028C414.594 10.238 414.876 10.8019 415.352 11.2221C415.838 11.6313 416.485 11.8358 417.292 11.8358C418.111 11.8358 418.758 11.587 419.233 11.0894C419.72 10.5808 419.963 9.91178 419.963 9.08244C419.963 8.65119 419.891 8.26969 419.747 7.93796C419.615 7.60623 419.427 7.32425 419.183 7.09204C418.94 6.85982 418.658 6.6829 418.337 6.56126C418.017 6.43963 417.668 6.37881 417.292 6.37881C416.673 6.37881 416.154 6.48939 415.733 6.71054C415.313 6.9317 414.981 7.21367 414.738 7.55647H413.395L414.655 1.45256L420.709 1.45256V2.69656L415.634 2.69656L414.887 6.11342H414.921C415.241 5.8038 415.617 5.56606 416.048 5.40019C416.48 5.23433 416.972 5.15139 417.525 5.15139C418.033 5.15139 418.52 5.23986 418.984 5.41678C419.449 5.59371 419.858 5.85356 420.212 6.19636C420.566 6.52809 420.848 6.94276 421.058 7.44036C421.279 7.9269 421.389 8.48532 421.389 9.11562C421.389 9.7238 421.284 10.2712 421.074 10.7577C420.875 11.2442 420.593 11.6589 420.228 12.0017C419.863 12.3445 419.432 12.6099 418.935 12.7979C418.437 12.9748 417.895 13.0633 417.309 13.0633ZM426.477 13.0633C425.891 13.0633 425.344 12.9803 424.835 12.8145C424.337 12.6375 423.906 12.3943 423.541 12.0846C423.176 11.775 422.883 11.4046 422.662 10.9733C422.441 10.5421 422.319 10.0611 422.297 9.53028H423.674C423.762 10.238 424.044 10.8019 424.52 11.2221C425.006 11.6313 425.653 11.8358 426.461 11.8358C427.279 11.8358 427.926 11.587 428.401 11.0894C428.888 10.5808 429.131 9.91178 429.131 9.08244C429.131 8.65119 429.059 8.26969 428.915 7.93796C428.783 7.60623 428.595 7.32425 428.351 7.09204C428.108 6.85982 427.826 6.6829 427.506 6.56126C427.185 6.43963 426.837 6.37881 426.461 6.37881C425.841 6.37881 425.322 6.48939 424.901 6.71054C424.481 6.9317 424.149 7.21367 423.906 7.55647H422.563L423.823 1.45256L429.877 1.45256V2.69656L424.802 2.69656L424.055 6.11342H424.089C424.409 5.8038 424.785 5.56606 425.217 5.40019C425.648 5.23433 426.14 5.15139 426.693 5.15139C427.201 5.15139 427.688 5.23986 428.152 5.41678C428.617 5.59371 429.026 5.85356 429.38 6.19636C429.734 6.52809 430.016 6.94276 430.226 7.44036C430.447 7.9269 430.557 8.48532 430.557 9.11562C430.557 9.7238 430.452 10.2712 430.242 10.7577C430.043 11.2442 429.761 11.6589 429.396 12.0017C429.031 12.3445 428.6 12.6099 428.103 12.7979C427.605 12.9748 427.063 13.0633 426.477 13.0633Z" fill="white"/>
<path d="M453.823 7.62281L458.269 7.62281V8.85023H453.823V7.62281ZM463.456 13.0633C462.87 13.0633 462.323 12.9803 461.814 12.8145C461.316 12.6375 460.885 12.3943 460.52 12.0846C460.155 11.775 459.862 11.4046 459.641 10.9733C459.42 10.5421 459.298 10.0611 459.276 9.53028L460.653 9.53028C460.741 10.238 461.023 10.8019 461.499 11.2221C461.985 11.6313 462.632 11.8358 463.439 11.8358C464.258 11.8358 464.905 11.587 465.38 11.0894C465.867 10.5808 466.11 9.91178 466.11 9.08244C466.11 8.65119 466.038 8.26969 465.894 7.93796C465.762 7.60623 465.574 7.32425 465.33 7.09204C465.087 6.85982 464.805 6.6829 464.484 6.56126C464.164 6.43963 463.815 6.37881 463.439 6.37881C462.82 6.37881 462.301 6.48939 461.88 6.71054C461.46 6.9317 461.128 7.21367 460.885 7.55647H459.542L460.802 1.45256L466.856 1.45256V2.69656L461.781 2.69656L461.034 6.11342H461.068C461.388 5.8038 461.764 5.56606 462.195 5.40019C462.627 5.23433 463.119 5.15139 463.672 5.15139C464.18 5.15139 464.667 5.23986 465.131 5.41678C465.596 5.59371 466.005 5.85356 466.359 6.19636C466.713 6.52809 466.995 6.94276 467.205 7.44036C467.426 7.9269 467.536 8.48532 467.536 9.11562C467.536 9.7238 467.431 10.2712 467.221 10.7577C467.022 11.2442 466.74 11.6589 466.375 12.0017C466.01 12.3445 465.579 12.6099 465.082 12.7979C464.584 12.9748 464.042 13.0633 463.456 13.0633ZM473.205 13.0633C472.508 13.0633 471.883 12.925 471.33 12.6486C470.789 12.3611 470.33 11.963 469.954 11.4543C469.578 10.9346 469.29 10.3099 469.091 9.58004C468.892 8.85023 468.793 8.03195 468.793 7.12521C468.793 6.20741 468.898 5.38361 469.108 4.65379C469.318 3.91292 469.616 3.28815 470.003 2.77949C470.39 2.25978 470.855 1.86722 471.397 1.60184C471.939 1.32539 472.547 1.18717 473.221 1.18717C473.896 1.18717 474.504 1.32539 475.046 1.60184C475.588 1.86722 476.046 2.25425 476.422 2.76291C476.809 3.27157 477.103 3.89633 477.302 4.6372C477.512 5.36702 477.617 6.19636 477.617 7.12521C477.617 8.03195 477.517 8.85023 477.318 9.58004C477.13 10.3099 476.848 10.9346 476.472 11.4543C476.096 11.963 475.632 12.3611 475.079 12.6486C474.537 12.925 473.912 13.0633 473.205 13.0633ZM473.221 11.8524C474.227 11.8524 474.968 11.4322 475.444 10.5918C475.93 9.75144 476.174 8.5959 476.174 7.12521C476.174 6.40645 476.113 5.75404 475.991 5.16798C475.87 4.58192 475.682 4.08431 475.427 3.67518C475.184 3.25498 474.88 2.9343 474.515 2.71315C474.15 2.49199 473.719 2.38141 473.221 2.38141C472.215 2.38141 471.463 2.80714 470.965 3.65859C470.479 4.49898 470.236 5.65452 470.236 7.12521C470.236 7.84397 470.296 8.49638 470.418 9.08244C470.54 9.66851 470.722 10.1661 470.965 10.5752C471.22 10.9844 471.535 11.2995 471.911 11.5207C472.287 11.7418 472.724 11.8524 473.221 11.8524Z" fill="white"/>
<path d="M502.344 7.62281L506.789 7.62281V8.85023H502.344V7.62281ZM513.204 10.0279L507.847 10.0279V8.78388L513.47 1.33645L514.564 1.33645L514.564 8.91658H516.439V10.0279H514.564V12.8145H513.204V10.0279ZM509.19 8.91658H513.204L513.204 3.59224H513.171L509.19 8.86682V8.91658ZM521.372 13.0633C520.786 13.0633 520.238 12.9803 519.73 12.8145C519.232 12.6375 518.801 12.3943 518.436 12.0846C518.071 11.775 517.778 11.4046 517.557 10.9733C517.336 10.5421 517.214 10.0611 517.192 9.53028H518.569C518.657 10.238 518.939 10.8019 519.415 11.2221C519.901 11.6313 520.548 11.8358 521.355 11.8358C522.173 11.8358 522.82 11.587 523.296 11.0894C523.782 10.5808 524.026 9.91178 524.026 9.08244C524.026 8.65119 523.954 8.26969 523.81 7.93796C523.677 7.60623 523.489 7.32425 523.246 7.09204C523.003 6.85982 522.721 6.6829 522.4 6.56126C522.079 6.43963 521.731 6.37881 521.355 6.37881C520.736 6.37881 520.216 6.48939 519.796 6.71054C519.376 6.9317 519.044 7.21367 518.801 7.55647H517.457L518.718 1.45256L524.772 1.45256V2.69656L519.697 2.69656L518.95 6.11342H518.983C519.304 5.8038 519.68 5.56606 520.111 5.40019C520.542 5.23433 521.035 5.15139 521.587 5.15139C522.096 5.15139 522.583 5.23986 523.047 5.41678C523.511 5.59371 523.921 5.85356 524.274 6.19636C524.628 6.52809 524.91 6.94276 525.12 7.44036C525.342 7.9269 525.452 8.48532 525.452 9.11562C525.452 9.7238 525.347 10.2712 525.137 10.7577C524.938 11.2442 524.656 11.6589 524.291 12.0017C523.926 12.3445 523.495 12.6099 522.997 12.7979C522.5 12.9748 521.958 13.0633 521.372 13.0633Z" fill="white"/>
<path d="M548.491 7.62281L552.936 7.62281V8.85023H548.491V7.62281ZM559.351 10.0279L553.994 10.0279V8.78388L559.617 1.33645L560.711 1.33645L560.711 8.91658H562.586V10.0279H560.711V12.8145H559.351V10.0279ZM555.337 8.91658H559.351L559.351 3.59224H559.318L555.337 8.86682V8.91658ZM568.099 13.0633C567.403 13.0633 566.778 12.925 566.225 12.6486C565.683 12.3611 565.224 11.963 564.848 11.4543C564.472 10.9346 564.185 10.3099 563.986 9.58004C563.787 8.85023 563.687 8.03195 563.687 7.12521C563.687 6.20741 563.792 5.38361 564.002 4.65379C564.212 3.91292 564.511 3.28815 564.898 2.77949C565.285 2.25978 565.749 1.86722 566.291 1.60184C566.833 1.32539 567.441 1.18717 568.116 1.18717C568.79 1.18717 569.399 1.32539 569.94 1.60184C570.482 1.86722 570.941 2.25425 571.317 2.76291C571.704 3.27157 571.997 3.89633 572.196 4.6372C572.406 5.36702 572.511 6.19636 572.511 7.12521C572.511 8.03195 572.412 8.85023 572.213 9.58004C572.025 10.3099 571.743 10.9346 571.367 11.4543C570.991 11.963 570.526 12.3611 569.974 12.6486C569.432 12.925 568.807 13.0633 568.099 13.0633ZM568.116 11.8524C569.122 11.8524 569.863 11.4322 570.338 10.5918C570.825 9.75144 571.068 8.5959 571.068 7.12521C571.068 6.40645 571.007 5.75404 570.886 5.16798C570.764 4.58192 570.576 4.08431 570.322 3.67518C570.079 3.25498 569.775 2.9343 569.41 2.71315C569.045 2.49199 568.613 2.38141 568.116 2.38141C567.11 2.38141 566.358 2.80714 565.86 3.65859C565.374 4.49898 565.13 5.65452 565.13 7.12521C565.13 7.84397 565.191 8.49638 565.313 9.08244C565.434 9.66851 565.617 10.1661 565.86 10.5752C566.114 10.9844 566.43 11.2995 566.806 11.5207C567.181 11.7418 567.618 11.8524 568.116 11.8524Z" fill="white"/>
<path d="M597.101 7.62281L601.546 7.62281V8.85023H597.101V7.62281ZM606.999 13.0633C606.369 13.0633 605.783 12.9803 605.241 12.8145C604.699 12.6375 604.224 12.3777 603.815 12.0349C603.406 11.6921 603.079 11.2774 602.836 10.7909C602.604 10.2933 602.482 9.71827 602.471 9.06586L603.848 9.06586C603.87 9.98365 604.157 10.6858 604.71 11.1724C605.263 11.6589 606.01 11.9022 606.95 11.9022C607.735 11.9022 608.376 11.7087 608.874 11.3216C609.382 10.9236 609.637 10.3209 609.637 9.5137C609.637 8.78388 609.377 8.23652 608.857 7.87161C608.348 7.49565 607.613 7.30767 606.651 7.30767H605.938V6.22953H606.634C607.53 6.22953 608.199 6.05813 608.641 5.71534C609.084 5.36149 609.305 4.88048 609.305 4.2723C609.305 3.96268 609.238 3.68623 609.106 3.44296C608.973 3.18863 608.796 2.97853 608.575 2.81267C608.354 2.63574 608.094 2.50305 607.795 2.41459C607.497 2.32612 607.176 2.28189 606.833 2.28189C606.004 2.28189 605.357 2.52516 604.893 3.01171C604.439 3.48719 604.213 4.12302 604.213 4.91918H602.853C602.853 4.35523 602.947 3.84657 603.135 3.3932C603.323 2.92877 603.588 2.53622 603.931 2.21554C604.285 1.88381 604.705 1.62948 605.191 1.45256C605.689 1.27563 606.253 1.18717 606.883 1.18717C607.414 1.18717 607.906 1.25904 608.359 1.4028C608.824 1.53549 609.222 1.73453 609.554 1.99992C609.896 2.26531 610.167 2.59151 610.366 2.97853C610.565 3.36556 610.665 3.80787 610.665 4.30547C610.665 4.94682 610.488 5.46101 610.134 5.84803C609.791 6.224 609.344 6.50597 608.791 6.69396V6.74372C609.587 6.95382 610.167 7.30767 610.532 7.80527C610.897 8.29181 611.08 8.90552 611.08 9.64639C611.08 10.1882 610.975 10.6748 610.764 11.106C610.554 11.5262 610.267 11.8801 609.902 12.1676C609.537 12.4551 609.106 12.6762 608.608 12.831C608.111 12.9858 607.574 13.0633 606.999 13.0633ZM616.177 13.0633C615.591 13.0633 615.044 12.9803 614.535 12.8145C614.038 12.6375 613.606 12.3943 613.241 12.0846C612.877 11.775 612.584 11.4046 612.362 10.9733C612.141 10.5421 612.02 10.0611 611.997 9.53028H613.374C613.463 10.238 613.745 10.8019 614.22 11.2221C614.707 11.6313 615.354 11.8358 616.161 11.8358C616.979 11.8358 617.626 11.587 618.101 11.0894C618.588 10.5808 618.831 9.91178 618.831 9.08244C618.831 8.65119 618.759 8.26969 618.616 7.93796C618.483 7.60623 618.295 7.32425 618.052 7.09204C617.808 6.85982 617.526 6.6829 617.206 6.56126C616.885 6.43963 616.537 6.37881 616.161 6.37881C615.541 6.37881 615.022 6.48939 614.602 6.71054C614.181 6.9317 613.85 7.21367 613.606 7.55647H612.263L613.523 1.45256L619.578 1.45256V2.69656L614.502 2.69656L613.756 6.11342H613.789C614.11 5.8038 614.485 5.56606 614.917 5.40019C615.348 5.23433 615.84 5.15139 616.393 5.15139C616.902 5.15139 617.388 5.23986 617.853 5.41678C618.317 5.59371 618.726 5.85356 619.08 6.19636C619.434 6.52809 619.716 6.94276 619.926 7.44036C620.147 7.9269 620.258 8.48532 620.258 9.11562C620.258 9.7238 620.153 10.2712 619.942 10.7577C619.743 11.2442 619.461 11.6589 619.097 12.0017C618.732 12.3445 618.3 12.6099 617.803 12.7979C617.305 12.9748 616.763 13.0633 616.177 13.0633Z" fill="white"/>
<path d="M643.248 7.62281L647.693 7.62281V8.85023H643.248V7.62281ZM653.146 13.0633C652.516 13.0633 651.93 12.9803 651.388 12.8145C650.846 12.6375 650.371 12.3777 649.962 12.0349C649.552 11.6921 649.226 11.2774 648.983 10.7909C648.751 10.2933 648.629 9.71827 648.618 9.06586L649.995 9.06586C650.017 9.98365 650.304 10.6858 650.857 11.1724C651.41 11.6589 652.157 11.9022 653.097 11.9022C653.882 11.9022 654.523 11.7087 655.021 11.3216C655.529 10.9236 655.784 10.3209 655.784 9.5137C655.784 8.78388 655.524 8.23652 655.004 7.87161C654.495 7.49565 653.76 7.30767 652.798 7.30767H652.085V6.22953H652.781C653.677 6.22953 654.346 6.05813 654.788 5.71534C655.231 5.36149 655.452 4.88048 655.452 4.2723C655.452 3.96268 655.385 3.68623 655.253 3.44296C655.12 3.18863 654.943 2.97853 654.722 2.81267C654.501 2.63574 654.241 2.50305 653.942 2.41459C653.644 2.32612 653.323 2.28189 652.98 2.28189C652.151 2.28189 651.504 2.52516 651.04 3.01171C650.586 3.48719 650.36 4.12302 650.36 4.91918H649C649 4.35523 649.094 3.84657 649.282 3.3932C649.47 2.92877 649.735 2.53622 650.078 2.21554C650.432 1.88381 650.852 1.62948 651.338 1.45256C651.836 1.27563 652.4 1.18717 653.03 1.18717C653.561 1.18717 654.053 1.25904 654.506 1.4028C654.971 1.53549 655.369 1.73453 655.701 1.99992C656.043 2.26531 656.314 2.59151 656.513 2.97853C656.712 3.36556 656.812 3.80787 656.812 4.30547C656.812 4.94682 656.635 5.46101 656.281 5.84803C655.938 6.224 655.491 6.50597 654.938 6.69396V6.74372C655.734 6.95382 656.314 7.30767 656.679 7.80527C657.044 8.29181 657.227 8.90552 657.227 9.64639C657.227 10.1882 657.122 10.6748 656.911 11.106C656.701 11.5262 656.414 11.8801 656.049 12.1676C655.684 12.4551 655.253 12.6762 654.755 12.831C654.258 12.9858 653.721 13.0633 653.146 13.0633ZM662.905 13.0633C662.208 13.0633 661.583 12.925 661.031 12.6486C660.489 12.3611 660.03 11.963 659.654 11.4543C659.278 10.9346 658.99 10.3099 658.791 9.58004C658.592 8.85023 658.493 8.03195 658.493 7.12521C658.493 6.20741 658.598 5.38361 658.808 4.65379C659.018 3.91292 659.317 3.28815 659.704 2.77949C660.091 2.25978 660.555 1.86722 661.097 1.60184C661.639 1.32539 662.247 1.18717 662.921 1.18717C663.596 1.18717 664.204 1.32539 664.746 1.60184C665.288 1.86722 665.747 2.25425 666.123 2.76291C666.51 3.27157 666.803 3.89633 667.002 4.6372C667.212 5.36702 667.317 6.19636 667.317 7.12521C667.317 8.03195 667.217 8.85023 667.018 9.58004C666.83 10.3099 666.548 10.9346 666.172 11.4543C665.796 11.963 665.332 12.3611 664.779 12.6486C664.237 12.925 663.613 13.0633 662.905 13.0633ZM662.921 11.8524C663.928 11.8524 664.669 11.4322 665.144 10.5918C665.631 9.75144 665.874 8.5959 665.874 7.12521C665.874 6.40645 665.813 5.75404 665.691 5.16798C665.57 4.58192 665.382 4.08431 665.127 3.67518C664.884 3.25498 664.58 2.9343 664.215 2.71315C663.85 2.49199 663.419 2.38141 662.921 2.38141C661.915 2.38141 661.163 2.80714 660.666 3.65859C660.179 4.49898 659.936 5.65452 659.936 7.12521C659.936 7.84397 659.997 8.49638 660.118 9.08244C660.24 9.66851 660.422 10.1661 660.666 10.5752C660.92 10.9844 661.235 11.2995 661.611 11.5207C661.987 11.7418 662.424 11.8524 662.921 11.8524Z" fill="white"/>
<path d="M691.577 7.62281L696.022 7.62281V8.85023H691.577V7.62281ZM697 12.8145C697.034 12.0515 697.177 11.4046 697.432 10.8738C697.697 10.332 698.029 9.86202 698.427 9.46394C698.836 9.06586 699.284 8.71754 699.77 8.41897C700.268 8.10936 700.766 7.8108 701.263 7.52329C701.639 7.31319 701.971 7.11415 702.258 6.92617C702.557 6.72713 702.811 6.52256 703.021 6.31246C703.231 6.09131 703.392 5.85356 703.502 5.59923C703.613 5.3449 703.668 5.04634 703.668 4.70355C703.668 4.00691 703.447 3.44296 703.005 3.01171C702.562 2.58045 701.96 2.36482 701.197 2.36482C700.799 2.36482 700.45 2.43117 700.152 2.56387C699.853 2.6855 699.599 2.8569 699.389 3.07805C699.168 3.32133 699.002 3.61436 698.891 3.95715C698.792 4.29994 698.742 4.76437 698.742 5.35043H697.282C697.282 4.62062 697.371 4.01244 697.548 3.5259C697.736 3.03935 698.007 2.61915 698.36 2.2653C698.725 1.91146 699.162 1.64607 699.671 1.46914C700.18 1.29222 700.727 1.20376 701.313 1.20376C701.888 1.20376 702.408 1.29222 702.872 1.46914C703.348 1.63501 703.751 1.87275 704.083 2.18237C704.415 2.49199 704.669 2.86243 704.846 3.29368C705.023 3.71388 705.111 4.17831 705.111 4.68697C705.111 5.23986 705.023 5.70981 704.846 6.09684C704.669 6.4728 704.431 6.80453 704.133 7.09204C703.834 7.37954 703.48 7.64493 703.071 7.8882C702.673 8.12041 702.247 8.36369 701.794 8.61802C701.484 8.78388 701.164 8.97187 700.832 9.18196C700.5 9.381 700.185 9.60216 699.886 9.84543C699.599 10.0776 699.345 10.332 699.123 10.6084C698.902 10.8849 698.753 11.1779 698.676 11.4875H704.879V12.8145L697 12.8145ZM710.264 13.0633C709.678 13.0633 709.131 12.9803 708.622 12.8145C708.124 12.6375 707.693 12.3943 707.328 12.0846C706.963 11.775 706.67 11.4046 706.449 10.9733C706.228 10.5421 706.106 10.0611 706.084 9.53028H707.461C707.549 10.238 707.831 10.8019 708.307 11.2221C708.793 11.6313 709.44 11.8358 710.248 11.8358C711.066 11.8358 711.713 11.587 712.188 11.0894C712.675 10.5808 712.918 9.91178 712.918 9.08244C712.918 8.65119 712.846 8.26969 712.702 7.93796C712.57 7.60623 712.382 7.32425 712.138 7.09204C711.895 6.85982 711.613 6.6829 711.293 6.56126C710.972 6.43963 710.624 6.37881 710.248 6.37881C709.628 6.37881 709.109 6.48939 708.688 6.71054C708.268 6.9317 707.937 7.21367 707.693 7.55647H706.35L707.61 1.45256L713.664 1.45256V2.69656L708.589 2.69656L707.843 6.11342H707.876C708.196 5.8038 708.572 5.56606 709.004 5.40019C709.435 5.23433 709.927 5.15139 710.48 5.15139C710.988 5.15139 711.475 5.23986 711.939 5.41678C712.404 5.59371 712.813 5.85356 713.167 6.19636C713.521 6.52809 713.803 6.94276 714.013 7.44036C714.234 7.9269 714.345 8.48532 714.345 9.11562C714.345 9.7238 714.239 10.2712 714.029 10.7577C713.83 11.2442 713.548 11.6589 713.183 12.0017C712.819 12.3445 712.387 12.6099 711.89 12.7979C711.392 12.9748 710.85 13.0633 710.264 13.0633Z" fill="white"/>
<path d="M738.224 7.62281L742.669 7.62281V8.85023H738.224V7.62281ZM743.647 12.8145C743.68 12.0515 743.824 11.4046 744.078 10.8738C744.344 10.332 744.676 9.86202 745.074 9.46394C745.483 9.06586 745.931 8.71754 746.417 8.41897C746.915 8.10936 747.412 7.8108 747.91 7.52329C748.286 7.31319 748.618 7.11415 748.905 6.92617C749.204 6.72713 749.458 6.52256 749.668 6.31246C749.878 6.09131 750.039 5.85356 750.149 5.59923C750.26 5.3449 750.315 5.04634 750.315 4.70355C750.315 4.00691 750.094 3.44296 749.652 3.01171C749.209 2.58045 748.607 2.36482 747.844 2.36482C747.445 2.36482 747.097 2.43117 746.799 2.56387C746.5 2.6855 746.246 2.8569 746.036 3.07805C745.814 3.32133 745.649 3.61436 745.538 3.95715C745.438 4.29994 745.389 4.76437 745.389 5.35043H743.929C743.929 4.62062 744.018 4.01244 744.194 3.5259C744.382 3.03935 744.653 2.61915 745.007 2.2653C745.372 1.91146 745.809 1.64607 746.318 1.46914C746.826 1.29222 747.374 1.20376 747.96 1.20376C748.535 1.20376 749.054 1.29222 749.519 1.46914C749.994 1.63501 750.398 1.87275 750.73 2.18237C751.061 2.49199 751.316 2.86243 751.493 3.29368C751.67 3.71388 751.758 4.17831 751.758 4.68697C751.758 5.23986 751.67 5.70981 751.493 6.09684C751.316 6.4728 751.078 6.80453 750.779 7.09204C750.481 7.37954 750.127 7.64493 749.718 7.8882C749.32 8.12041 748.894 8.36369 748.441 8.61802C748.131 8.78388 747.81 8.97187 747.479 9.18196C747.147 9.381 746.832 9.60216 746.533 9.84543C746.246 10.0776 745.991 10.332 745.77 10.6084C745.549 10.8849 745.4 11.1779 745.322 11.4875H751.526V12.8145L743.647 12.8145ZM757.491 13.0633C756.795 13.0633 756.17 12.925 755.617 12.6486C755.075 12.3611 754.616 11.963 754.24 11.4543C753.864 10.9346 753.577 10.3099 753.378 9.58004C753.179 8.85023 753.079 8.03195 753.079 7.12521C753.079 6.20741 753.184 5.38361 753.395 4.65379C753.605 3.91292 753.903 3.28815 754.29 2.77949C754.677 2.25978 755.142 1.86722 755.684 1.60184C756.225 1.32539 756.834 1.18717 757.508 1.18717C758.183 1.18717 758.791 1.32539 759.333 1.60184C759.874 1.86722 760.333 2.25425 760.709 2.76291C761.096 3.27157 761.389 3.89633 761.588 4.6372C761.798 5.36702 761.904 6.19636 761.904 7.12521C761.904 8.03195 761.804 8.85023 761.605 9.58004C761.417 10.3099 761.135 10.9346 760.759 11.4543C760.383 11.963 759.919 12.3611 759.366 12.6486C758.824 12.925 758.199 13.0633 757.491 13.0633ZM757.508 11.8524C758.514 11.8524 759.255 11.4322 759.731 10.5918C760.217 9.75144 760.46 8.5959 760.46 7.12521C760.46 6.40645 760.4 5.75404 760.278 5.16798C760.156 4.58192 759.968 4.08431 759.714 3.67518C759.471 3.25498 759.167 2.9343 758.802 2.71315C758.437 2.49199 758.006 2.38141 757.508 2.38141C756.502 2.38141 755.75 2.80714 755.252 3.65859C754.766 4.49898 754.522 5.65452 754.522 7.12521C754.522 7.84397 754.583 8.49638 754.705 9.08244C754.827 9.66851 755.009 10.1661 755.252 10.5752C755.507 10.9844 755.822 11.2995 756.198 11.5207C756.574 11.7418 757.01 11.8524 757.508 11.8524Z" fill="white"/>
<path d="M789.133 7.62281L793.578 7.62281V8.85023H789.133V7.62281ZM795.766 4.53768L793.278 4.53768V3.60883C793.621 3.59777 793.952 3.55907 794.273 3.49272C794.594 3.41532 794.876 3.29368 795.119 3.12781C795.373 2.95089 795.584 2.7242 795.749 2.44776C795.915 2.16026 796.026 1.80641 796.081 1.38621L797.159 1.38621V12.8145H795.766V4.53768ZM803.009 13.0633C802.423 13.0633 801.876 12.9803 801.367 12.8145C800.87 12.6375 800.438 12.3943 800.074 12.0846C799.709 11.775 799.416 11.4046 799.194 10.9733C798.973 10.5421 798.852 10.0611 798.83 9.53028H800.206C800.295 10.238 800.577 10.8019 801.052 11.2221C801.539 11.6313 802.186 11.8358 802.993 11.8358C803.811 11.8358 804.458 11.587 804.933 11.0894C805.42 10.5808 805.663 9.91178 805.663 9.08244C805.663 8.65119 805.591 8.26969 805.448 7.93796C805.315 7.60623 805.127 7.32425 804.884 7.09204C804.64 6.85982 804.358 6.6829 804.038 6.56126C803.717 6.43963 803.369 6.37881 802.993 6.37881C802.374 6.37881 801.854 6.48939 801.434 6.71054C801.013 6.9317 800.682 7.21367 800.438 7.55647H799.095L800.356 1.45256L806.41 1.45256V2.69656L801.334 2.69656L800.588 6.11342H800.621C800.942 5.8038 801.318 5.56606 801.749 5.40019C802.18 5.23433 802.672 5.15139 803.225 5.15139C803.734 5.15139 804.22 5.23986 804.685 5.41678C805.149 5.59371 805.558 5.85356 805.912 6.19636C806.266 6.52809 806.548 6.94276 806.758 7.44036C806.979 7.9269 807.09 8.48532 807.09 9.11562C807.09 9.7238 806.985 10.2712 806.775 10.7577C806.576 11.2442 806.294 11.6589 805.929 12.0017C805.564 12.3445 805.133 12.6099 804.635 12.7979C804.137 12.9748 803.595 13.0633 803.009 13.0633Z" fill="white"/>
<path d="M835.28 7.62281L839.725 7.62281V8.85023H835.28V7.62281ZM841.913 4.53768L839.425 4.53768V3.60883C839.768 3.59777 840.099 3.55907 840.42 3.49272C840.741 3.41532 841.023 3.29368 841.266 3.12781C841.52 2.95089 841.73 2.7242 841.896 2.44776C842.062 2.16026 842.173 1.80641 842.228 1.38621L843.306 1.38621V12.8145H841.913V4.53768ZM849.737 13.0633C849.04 13.0633 848.416 12.925 847.863 12.6486C847.321 12.3611 846.862 11.963 846.486 11.4543C846.11 10.9346 845.822 10.3099 845.623 9.58004C845.424 8.85023 845.325 8.03195 845.325 7.12521C845.325 6.20741 845.43 5.38361 845.64 4.65379C845.85 3.91292 846.149 3.28815 846.536 2.77949C846.923 2.25978 847.387 1.86722 847.929 1.60184C848.471 1.32539 849.079 1.18717 849.754 1.18717C850.428 1.18717 851.036 1.32539 851.578 1.60184C852.12 1.86722 852.579 2.25425 852.955 2.76291C853.342 3.27157 853.635 3.89633 853.834 4.6372C854.044 5.36702 854.149 6.19636 854.149 7.12521C854.149 8.03195 854.049 8.85023 853.85 9.58004C853.662 10.3099 853.38 10.9346 853.005 11.4543C852.629 11.963 852.164 12.3611 851.611 12.6486C851.069 12.925 850.445 13.0633 849.737 13.0633ZM849.754 11.8524C850.76 11.8524 851.501 11.4322 851.976 10.5918C852.463 9.75144 852.706 8.5959 852.706 7.12521C852.706 6.40645 852.645 5.75404 852.524 5.16798C852.402 4.58192 852.214 4.08431 851.96 3.67518C851.716 3.25498 851.412 2.9343 851.047 2.71315C850.682 2.49199 850.251 2.38141 849.754 2.38141C848.747 2.38141 847.995 2.80714 847.498 3.65859C847.011 4.49898 846.768 5.65452 846.768 7.12521C846.768 7.84397 846.829 8.49638 846.95 9.08244C847.072 9.66851 847.254 10.1661 847.498 10.5752C847.752 10.9844 848.067 11.2995 848.443 11.5207C848.819 11.7418 849.256 11.8524 849.754 11.8524Z" fill="white"/>
<path d="M885.313 7.62281L889.758 7.62281V8.85023H885.313V7.62281ZM894.946 13.0633C894.36 13.0633 893.812 12.9803 893.304 12.8145C892.806 12.6375 892.375 12.3943 892.01 12.0846C891.645 11.775 891.352 11.4046 891.131 10.9733C890.91 10.5421 890.788 10.0611 890.766 9.53028L892.143 9.53028C892.231 10.238 892.513 10.8019 892.989 11.2221C893.475 11.6313 894.122 11.8358 894.929 11.8358C895.748 11.8358 896.394 11.587 896.87 11.0894C897.356 10.5808 897.6 9.91178 897.6 9.08244C897.6 8.65119 897.528 8.26969 897.384 7.93796C897.251 7.60623 897.063 7.32425 896.82 7.09204C896.577 6.85982 896.295 6.6829 895.974 6.56126C895.654 6.43963 895.305 6.37881 894.929 6.37881C894.31 6.37881 893.79 6.48939 893.37 6.71054C892.95 6.9317 892.618 7.21367 892.375 7.55647H891.031L892.292 1.45256L898.346 1.45256V2.69656L893.271 2.69656L892.524 6.11342H892.557C892.878 5.8038 893.254 5.56606 893.685 5.40019C894.117 5.23433 894.609 5.15139 895.161 5.15139C895.67 5.15139 896.157 5.23986 896.621 5.41678C897.086 5.59371 897.495 5.85356 897.849 6.19636C898.202 6.52809 898.484 6.94276 898.694 7.44036C898.916 7.9269 899.026 8.48532 899.026 9.11562C899.026 9.7238 898.921 10.2712 898.711 10.7577C898.512 11.2442 898.23 11.6589 897.865 12.0017C897.5 12.3445 897.069 12.6099 896.571 12.7979C896.074 12.9748 895.532 13.0633 894.946 13.0633Z" fill="white"/>
<path d="M940.469 13.0633C939.773 13.0633 939.148 12.925 938.595 12.6486C938.053 12.3611 937.594 11.963 937.218 11.4543C936.842 10.9346 936.555 10.3099 936.356 9.58004C936.157 8.85023 936.057 8.03195 936.057 7.12521C936.057 6.20741 936.162 5.38361 936.372 4.65379C936.582 3.91292 936.881 3.28815 937.268 2.77949C937.655 2.25978 938.119 1.86722 938.661 1.60184C939.203 1.32539 939.811 1.18717 940.486 1.18717C941.16 1.18717 941.769 1.32539 942.31 1.60184C942.852 1.86722 943.311 2.25425 943.687 2.76291C944.074 3.27157 944.367 3.89633 944.566 4.6372C944.776 5.36702 944.881 6.19636 944.881 7.12521C944.881 8.03195 944.782 8.85023 944.583 9.58004C944.395 10.3099 944.113 10.9346 943.737 11.4543C943.361 11.963 942.896 12.3611 942.344 12.6486C941.802 12.925 941.177 13.0633 940.469 13.0633ZM940.486 11.8524C941.492 11.8524 942.233 11.4322 942.708 10.5918C943.195 9.75144 943.438 8.5959 943.438 7.12521C943.438 6.40645 943.377 5.75404 943.256 5.16798C943.134 4.58192 942.946 4.08431 942.692 3.67518C942.449 3.25498 942.145 2.9343 941.78 2.71315C941.415 2.49199 940.983 2.38141 940.486 2.38141C939.48 2.38141 938.728 2.80714 938.23 3.65859C937.743 4.49898 937.5 5.65452 937.5 7.12521C937.5 7.84397 937.561 8.49638 937.683 9.08244C937.804 9.66851 937.987 10.1661 938.23 10.5752C938.484 10.9844 938.8 11.2995 939.175 11.5207C939.551 11.7418 939.988 11.8524 940.486 11.8524Z" fill="white"/>
</g>
<circle cx="473.504" cy="83.165" r="3.39868" fill="#1DEBF9"/>
</svg>
